<?xml version="1.0" standalone="no"?>
<!DOCTYPE svg PUBLIC "-//W3C//DTD SVG 20010904//EN"
 "http://www.w3.org/TR/2001/REC-SVG-20010904/DTD/svg10.dtd">
<svg version="1.0" xmlns="http://www.w3.org/2000/svg"
 width="1024.000000pt" height="1024.000000pt" viewBox="0 0 1024.000000 1024.000000"
 preserveAspectRatio="xMidYMid meet">

<g transform="translate(0.000000,1024.000000) scale(0.100000,-0.100000)"
fill="#000000" stroke="none">
<path d="M0 5120 l0 -5120 5120 0 5120 0 0 5120 0 5120 -5120 0 -5120 0 0
-5120z m2976 1694 c90 -43 140 -133 132 -237 -8 -101 -48 -157 -140 -199 l-48
-22 0 -76 0 -76 39 -20 c57 -28 765 -750 782 -798 l13 -36 97 0 c93 0 97 1
103 23 3 13 19 42 36 66 60 82 191 115 285 72 53 -24 122 -103 136 -155 26
-97 -21 -218 -106 -271 -43 -27 -57 -30 -124 -30 -59 0 -85 5 -118 23 -51 26
-91 76 -108 134 l-12 43 -94 3 -94 3 -14 -33 c-8 -19 -182 -202 -417 -438
l-404 -406 0 -86 0 -86 33 -11 c85 -28 157 -132 157 -225 0 -81 -17 -124 -68
-175 -73 -72 -180 -92 -272 -50 -63 28 -97 64 -120 126 -47 127 -2 248 115
309 l55 29 0 85 0 85 -395 395 c-266 266 -402 409 -416 438 l-21 42 -87 0 -87
0 -12 -46 c-16 -58 -90 -135 -148 -152 -98 -29 -192 -5 -254 65 -45 52 -60 94
-60 173 0 71 26 126 79 171 120 103 302 66 371 -76 l22 -45 89 0 88 0 18 39
c21 47 748 786 788 801 24 9 25 13 25 89 l0 80 -47 21 c-96 42 -137 107 -137
215 0 76 15 117 63 168 67 73 185 95 277 51z m-437 -325 c7 -23 11 -42 9 -43
-2 -2 -32 -13 -68 -26 -224 -80 -431 -234 -572 -427 -53 -72 -135 -230 -168
-321 l-23 -63 -41 7 c-23 3 -43 8 -45 10 -8 7 61 178 107 266 124 238 357 461
592 566 50 22 176 69 191 71 3 1 11 -17 18 -40z m757 17 c101 -35 134 -50 229
-106 199 -118 369 -297 485 -512 40 -75 100 -226 100 -252 0 -8 -12 -17 -27
-20 -16 -4 -35 -9 -43 -11 -12 -4 -19 8 -28 42 -86 321 -408 657 -736 768
l-86 30 6 35 c11 60 6 58 100 26z m2354 -108 l0 -103 -298 0 c-271 0 -300 -2
-335 -19 -50 -25 -77 -78 -77 -151 0 -96 39 -116 345 -176 249 -49 352 -94
415 -181 47 -64 64 -130 63 -238 0 -119 -26 -193 -91 -262 -97 -103 -173 -118
-624 -118 l-298 0 0 103 0 102 333 0 c315 1 334 2 378 21 33 15 50 32 63 58
37 78 33 154 -10 206 -31 36 -100 58 -294 95 -252 48 -333 77 -403 144 -52 49
-74 95 -88 182 -21 138 11 258 90 332 99 93 163 105 539 106 l292 1 0 -102z
m496 -95 c361 -1006 337 -944 363 -941 27 3 8 -45 308 786 l127 352 107 0 108
0 -29 -82 c-31 -93 -354 -971 -421 -1148 l-44 -115 -155 0 -154 0 -88 230
c-48 127 -146 388 -217 580 -71 193 -145 392 -164 443 l-35 92 112 0 111 0 71
-197z m1967 182 c122 -21 203 -81 251 -184 17 -38 21 -65 21 -156 0 -100 -3
-115 -27 -161 -25 -47 -69 -94 -114 -120 -17 -10 -15 -13 25 -33 112 -58 164
-152 164 -301 0 -139 -55 -258 -143 -312 -93 -57 -129 -61 -562 -66 l-398 -4
0 676 0 676 353 0 c255 -1 373 -5 430 -15z m-4027 -1511 c30 -8 30 -23 0 -111
-53 -155 -140 -301 -253 -424 -126 -138 -252 -235 -404 -311 -58 -29 -202 -88
-215 -88 -1 0 -4 12 -7 28 -3 15 -8 34 -12 43 -4 12 15 23 87 52 173 69 314
164 449 304 128 133 218 277 269 433 11 36 23 71 26 79 2 7 11 10 20 7 9 -3
27 -9 40 -12z m-2347 -66 c105 -326 379 -611 712 -740 118 -45 113 -39 88
-105 l-8 -22 -68 23 c-383 131 -686 436 -813 819 -23 70 -21 81 15 90 47 11
51 8 74 -65z m3071 -253 l0 -205 -35 0 -35 0 0 205 0 205 35 0 35 0 0 -205z
m266 59 l99 -146 3 146 3 146 29 0 30 0 0 -206 0 -205 -31 3 c-28 3 -42 18
-127 143 -52 77 -97 141 -101 143 -3 1 -5 -63 -3 -143 l3 -145 -35 0 -36 0 0
205 0 205 33 0 c32 0 38 -7 133 -146z m434 3 l95 -138 3 140 3 141 34 0 35 0
0 -205 0 -205 -32 0 c-31 1 -39 10 -135 152 l-103 152 0 -152 0 -152 -35 0
-35 0 0 206 0 205 38 -3 c35 -3 41 -9 132 -141z m527 132 c66 -25 123 -116
123 -198 0 -72 -49 -154 -111 -187 -36 -18 -142 -18 -178 0 -97 51 -135 188
-81 296 33 66 90 100 167 100 28 0 64 -5 80 -11z m284 -149 c31 -85 59 -148
62 -140 3 8 29 79 57 158 l52 142 35 0 c29 0 34 -3 28 -17 -4 -10 -38 -102
-77 -205 l-70 -188 -34 0 c-19 0 -34 5 -34 11 0 10 -59 168 -131 352 l-19 48
37 -3 36 -3 58 -155z m531 -40 c43 -107 77 -198 78 -202 0 -5 -15 -8 -33 -8
-30 0 -34 4 -50 50 l-18 51 -92 -3 -91 -3 -15 -47 c-13 -45 -17 -48 -48 -48
-18 0 -33 1 -33 3 0 1 34 92 75 201 41 110 75 201 75 203 0 2 17 3 37 1 l38
-3 77 -195z m388 170 l0 -30 -65 0 -65 0 0 -175 0 -175 -36 0 -36 0 4 175 3
175 -62 0 -63 0 0 30 0 30 160 0 160 0 0 -30z m130 -175 l0 -205 -35 0 -35 0
0 205 0 205 35 0 35 0 0 -205z m359 191 c115 -60 143 -231 56 -334 -45 -52
-80 -65 -157 -60 -73 4 -113 28 -147 89 -60 107 -22 249 84 307 29 16 131 14
164 -2z m346 -128 l95 -143 0 143 0 142 35 0 35 0 0 -205 0 -205 -32 1 c-31 0
-38 9 -128 147 l-95 146 -3 -147 -3 -147 -32 0 -33 0 1 205 0 205 32 0 c31 0
38 -8 128 -142z m480 128 c38 -16 41 -23 22 -49 -10 -15 -17 -16 -44 -7 -17 6
-50 10 -74 8 -35 -2 -46 -8 -58 -30 -14 -24 -14 -28 2 -46 10 -11 39 -25 65
-32 75 -20 112 -41 127 -71 30 -56 9 -126 -45 -154 -55 -28 -170 -17 -212 22
-16 14 -16 17 -1 39 15 23 17 24 35 7 27 -25 129 -31 151 -8 22 21 22 58 0 78
-10 8 -40 21 -68 28 -100 24 -125 48 -125 117 0 43 28 88 64 102 34 14 124 11
161 -4z m-3675 -729 c31 -16 39 -61 14 -88 -15 -17 -16 -19 -1 -19 18 0 31
-35 25 -71 -4 -32 -42 -49 -110 -49 l-58 0 0 120 0 120 53 0 c28 0 63 -6 77
-13z m160 -74 c0 -114 28 -149 88 -107 20 14 22 23 22 105 0 84 1 89 21 89 20
0 21 -4 17 -94 -3 -84 -6 -97 -27 -120 -18 -19 -35 -26 -62 -26 -80 0 -99 30
-99 155 0 78 2 85 20 85 18 0 20 -7 20 -87z m273 -36 c2 -106 0 -117 -15 -117
-16 0 -18 12 -18 121 0 104 2 120 16 117 12 -2 15 -23 17 -121z m137 23 l0
-100 55 0 c48 0 55 -2 55 -20 0 -18 -7 -20 -75 -20 l-75 0 0 120 c0 113 1 120
20 120 19 0 20 -7 20 -100z m310 82 c49 -24 75 -78 61 -130 -17 -62 -50 -86
-129 -90 l-67 -4 2 114 c1 62 2 116 2 121 2 14 96 7 131 -11z m430 -2 c0 -17
-7 -20 -40 -20 l-40 0 0 -100 c0 -93 -1 -100 -20 -100 -19 0 -20 7 -20 100 l0
100 -40 0 c-33 0 -40 3 -40 20 0 19 7 20 100 20 93 0 100 -1 100 -20z m110
-30 l0 -50 55 0 55 0 0 51 c0 41 3 50 16 47 13 -2 16 -21 16 -118 0 -97 -3
-116 -16 -118 -13 -3 -16 6 -16 46 l0 50 -55 4 -55 3 0 -52 c0 -46 -3 -53 -20
-53 -19 0 -20 7 -20 120 0 113 1 120 20 120 17 0 20 -7 20 -50z m380 30 c0
-18 -7 -20 -55 -20 -54 0 -55 0 -55 -30 0 -28 2 -30 40 -30 34 0 40 -3 40 -21
0 -19 -5 -21 -40 -17 -39 3 -40 3 -40 -29 l0 -33 60 0 c53 0 60 -2 60 -20 0
-18 -7 -20 -80 -20 l-80 0 0 113 c0 63 3 117 7 120 3 4 37 7 75 7 61 0 68 -2
68 -20z m360 -2 c0 -15 -8 -18 -55 -18 l-55 0 0 -35 c0 -35 0 -35 45 -35 33 0
45 -4 45 -15 0 -11 -12 -15 -45 -15 l-45 0 0 -50 c0 -43 -3 -50 -20 -50 -19 0
-20 7 -20 113 0 63 3 117 7 121 4 4 38 6 75 5 59 -2 68 -5 68 -21z m118 -68
c2 -60 7 -89 19 -102 21 -24 48 -23 73 2 17 17 20 33 20 106 0 76 2 85 18 82
15 -3 17 -16 16 -96 0 -82 -3 -95 -24 -117 -17 -18 -34 -25 -61 -25 -80 0 -99
30 -99 155 0 77 2 86 18 83 14 -3 17 -17 20 -88z m402 70 c0 -16 -7 -20 -35
-20 l-35 0 0 -100 c0 -93 -1 -100 -20 -100 -19 0 -20 7 -20 100 l0 100 -40 0
c-33 0 -40 3 -40 20 0 19 7 20 95 20 88 0 95 -1 95 -20z m110 -67 c0 -95 13
-123 56 -123 39 0 54 35 54 127 0 78 1 83 21 83 20 0 21 -4 17 -95 -3 -86 -5
-97 -29 -120 -26 -27 -65 -34 -107 -20 -35 10 -52 62 -52 155 0 73 2 80 20 80
18 0 20 -7 20 -87z m393 59 c27 -24 22 -77 -10 -100 l-27 -19 32 -41 c37 -47
39 -52 13 -52 -11 0 -34 20 -55 50 -23 31 -43 50 -56 50 -17 0 -20 -7 -20 -50
0 -43 -3 -50 -20 -50 -19 0 -20 7 -20 114 l0 115 48 3 c62 4 93 -1 115 -20z
m257 8 c0 -18 -7 -20 -57 -20 -58 0 -58 0 -58 -30 0 -29 2 -30 43 -30 36 0 42
-3 42 -21 0 -18 -5 -20 -42 -18 -40 3 -41 3 -42 -29 l-1 -32 63 0 c55 0 62 -2
62 -20 0 -18 -7 -20 -80 -20 l-80 0 0 120 0 120 75 0 c68 0 75 -2 75 -20z
m123 -186 c3 -4 -3 -25 -15 -48 -23 -44 -34 -36 -24 20 6 31 23 43 39 28z
m-2080 -246 c10 -5 16 -15 14 -21 -4 -12 -14 -12 -74 -1 -45 9 -83 -30 -83
-86 0 -56 27 -82 83 -78 37 3 42 6 45 31 3 23 0 27 -22 27 -16 0 -26 6 -26 15
0 11 12 15 45 15 l45 0 0 -43 c0 -61 -25 -82 -96 -82 -45 0 -58 4 -81 28 -24
24 -28 35 -28 87 0 51 4 63 29 89 16 16 38 32 50 34 26 5 75 -2 99 -15z
m-1580 -105 c-1 -98 -4 -119 -17 -121 -14 -3 -16 13 -16 117 0 109 2 121 18
121 15 0 17 -12 15 -117z m188 35 l54 -82 3 82 c2 70 5 82 20 82 15 0 17 -13
17 -117 0 -155 -11 -158 -91 -33 l-59 92 -3 -91 c-2 -72 -6 -91 -17 -91 -12 0
-15 21 -15 120 0 111 1 120 19 120 12 0 37 -28 72 -82z m349 61 c0 -18 -5 -21
-35 -17 l-35 4 0 -103 c0 -96 -1 -103 -20 -103 -19 0 -20 7 -20 103 l0 102
-37 0 c-28 0 -38 5 -41 18 -3 15 6 17 92 17 91 0 96 -1 96 -21z m220 1 c0 -18
-6 -20 -52 -18 l-53 3 -3 -32 c-3 -33 -3 -33 42 -33 34 0 46 -4 46 -15 0 -11
-12 -15 -45 -15 -45 0 -45 0 -45 -35 l0 -35 64 0 c55 0 64 -2 62 -17 -2 -15
-15 -18 -79 -21 l-77 -3 0 121 0 120 70 0 c64 0 70 -2 70 -20z m130 -80 l0
-100 50 0 c43 0 50 -3 50 -20 0 -18 -7 -20 -70 -20 l-70 0 0 120 c0 113 1 120
20 120 19 0 20 -7 20 -100z m210 0 l0 -100 55 0 c49 0 55 -2 55 -20 0 -19 -5
-21 -72 -18 -40 2 -72 6 -70 11 1 4 2 57 2 117 0 91 3 110 15 110 12 0 15 -18
15 -100z m218 -17 c-3 -103 -5 -118 -20 -121 -16 -3 -18 8 -18 117 0 115 1
121 20 121 20 0 21 -5 18 -117z m518 100 c-3 -14 -13 -18 -52 -18 -52 0 -54
-1 -54 -40 0 -22 4 -25 40 -25 29 0 40 -4 40 -15 0 -11 -11 -15 -40 -15 -39 0
-40 -1 -40 -35 l0 -35 61 0 c52 0 60 -2 57 -17 -3 -15 -16 -18 -81 -21 l-77
-3 0 121 0 120 74 0 c65 0 74 -2 72 -17z m179 -63 c28 -43 52 -79 55 -80 3 0
4 36 2 80 -3 75 -2 80 17 80 20 0 21 -5 21 -120 0 -151 -8 -153 -90 -30 l-59
91 -3 -88 c-3 -74 -6 -88 -20 -91 -16 -3 -18 8 -18 117 0 119 0 121 23 121 17
0 34 -19 72 -80z m355 59 c0 -18 -5 -20 -37 -17 l-38 3 -3 -103 c-2 -80 -6
-102 -17 -102 -11 0 -15 22 -17 102 l-3 103 -37 -3 c-33 -3 -38 -1 -38 17 0
20 5 21 95 21 90 0 95 -1 95 -21z m100 -79 l0 -100 55 0 c48 0 55 -2 55 -20 0
-18 -7 -20 -70 -20 l-70 0 0 120 c0 100 3 120 15 120 12 0 15 -18 15 -100z
m195 60 c14 -22 25 -44 25 -50 0 -24 19 -7 44 40 18 33 34 50 47 50 10 0 19
-3 19 -6 0 -4 -18 -35 -40 -70 -33 -53 -40 -72 -40 -114 0 -44 -3 -51 -17 -48
-14 3 -18 14 -19 55 -1 33 -9 62 -21 80 -11 15 -30 45 -42 66 -23 37 -23 37
-2 37 13 0 30 -14 46 -40z m213 -183 c2 -12 -3 -17 -17 -17 -15 0 -21 6 -21
21 0 25 33 22 38 -4z"/>
<path d="M2813 6715 c-64 -28 -93 -123 -57 -185 24 -39 65 -60 119 -60 42 0
52 5 86 39 35 35 39 44 39 88 0 101 -92 159 -187 118z"/>
<path d="M2637 5913 c-109 -109 -280 -283 -379 -386 l-180 -188 5 -39 c5 -36
38 -74 393 -435 214 -217 391 -394 394 -393 3 2 182 181 398 399 391 395 392
397 392 438 0 42 -2 45 -362 413 -199 203 -370 374 -380 379 -9 5 -31 9 -49 9
-29 0 -55 -22 -232 -197z m362 -78 c223 -59 381 -266 381 -500 0 -143 -52
-266 -155 -365 -241 -230 -625 -178 -795 109 -69 116 -89 261 -54 395 43 167
190 314 361 361 65 18 196 18 262 0z"/>
<path d="M2739 5751 c-225 -72 -350 -314 -279 -543 48 -156 165 -259 333 -294
187 -39 377 56 464 234 37 74 38 79 38 186 0 104 -2 115 -32 179 -36 75 -114
164 -177 201 -97 56 -239 72 -347 37z m198 -232 c64 -24 123 -109 123 -179 0
-41 -28 -105 -60 -139 -76 -79 -225 -64 -287 30 -24 36 -28 53 -28 109 0 55 4
73 27 107 46 69 147 102 225 72z"/>
<path d="M1510 5404 c-79 -53 -86 -151 -14 -213 108 -95 270 43 194 166 -36
59 -126 82 -180 47z"/>
<path d="M4094 5387 c-31 -28 -37 -41 -41 -83 -5 -59 10 -90 57 -122 50 -34
120 -27 163 16 25 25 31 41 35 86 4 54 3 57 -36 96 -36 36 -44 40 -91 40 -44
0 -56 -5 -87 -33z"/>
<path d="M2779 4061 c-35 -35 -39 -44 -39 -88 0 -123 145 -179 227 -89 28 31
33 43 33 87 0 46 -4 55 -39 90 -35 35 -44 39 -91 39 -47 0 -56 -4 -91 -39z"/>
<path d="M7538 6124 c-2 -145 0 -188 10 -192 7 -2 122 -3 256 0 235 4 245 5
292 29 85 43 118 150 75 245 -41 91 -90 104 -393 104 l-237 0 -3 -186z"/>
<path d="M7538 5550 l3 -201 277 3 c274 3 277 3 321 28 66 37 86 78 86 175 0
98 -19 131 -97 166 -51 22 -65 24 -323 27 l-270 4 3 -202z"/>
<path d="M5892 4784 c-34 -24 -53 -70 -53 -129 0 -95 42 -145 122 -145 66 0
104 33 119 103 24 107 -27 187 -119 187 -26 0 -56 -7 -69 -16z"/>
<path d="M6704 4700 l-30 -90 67 0 67 0 -30 83 c-17 45 -33 85 -37 89 -3 4
-20 -33 -37 -82z"/>
<path d="M7584 4789 c-71 -35 -82 -188 -18 -253 22 -21 36 -26 79 -26 48 0 56
3 83 34 81 93 30 257 -81 255 -23 0 -51 -5 -63 -10z"/>
<path d="M4785 4092 c-3 -3 -5 -18 -5 -34 0 -28 2 -29 43 -26 37 3 42 6 42 28
0 21 -6 26 -37 31 -21 3 -40 4 -43 1z"/>
<path d="M4780 3960 c0 -40 0 -40 39 -40 37 0 71 19 71 40 0 21 -34 40 -71 40
-39 0 -39 0 -39 -40z"/>
<path d="M5660 4010 l0 -80 44 0 c36 0 48 5 65 26 47 59 8 134 -69 134 l-40 0
0 -80z"/>
<path d="M7940 4054 l0 -35 46 3 c87 6 84 68 -2 68 -44 0 -44 0 -44 -36z"/>
</g>
</svg>
