<?xml version="1.0" encoding="UTF-8"?>
<svg version="1.1" xmlns="http://www.w3.org/2000/svg" width="1024" height="1024">
<path d="M0 0 C337.92 0 675.84 0 1024 0 C1024 337.92 1024 675.84 1024 1024 C686.08 1024 348.16 1024 0 1024 C0 686.08 0 348.16 0 0 Z " fill="#080806" transform="translate(0,0)"/>
<path d="M0 0 C5.21926448 5.36424405 7.56610962 10.32673786 7.75 17.875 C7.43467872 25.38139816 5.88392202 31.96749706 0.25 37.3125 C-8.27209945 42.3125 -8.27209945 42.3125 -11.75 42.3125 C-11.75 47.5925 -11.75 52.8725 -11.75 58.3125 C-8.78 59.3025 -8.78 59.3025 -5.75 60.3125 C-3.765625 61.6875 -3.765625 61.6875 -2 63.3125 C-1.32582031 63.93253906 -0.65164063 64.55257812 0.04296875 65.19140625 C5.29316761 70.23717259 10.51320172 75.25892722 15.23754883 80.80664062 C19.45649867 85.63926836 23.97985976 90.14128557 28.54149246 94.648592 C30.07530421 96.16473036 31.60530373 97.68462663 33.1343689 99.20555115 C37.4765268 103.5234947 41.82444282 107.83560578 46.17675781 112.14331055 C48.85402896 114.79365922 51.52629202 117.44897495 54.19562912 120.10731316 C55.20552747 121.11105008 56.21731303 122.11289225 57.23109818 123.11270332 C67.79516042 133.53230523 67.79516042 133.53230523 71.25 139.3125 C71.25 140.6325 71.25 141.9525 71.25 143.3125 C77.85 143.3125 84.45 143.3125 91.25 143.3125 C91.58 141.6625 91.91 140.0125 92.25 138.3125 C95.47174632 132.50686989 99.33169934 129.15783686 105.25 126.3125 C105.91 125.9825 106.57 125.6525 107.25 125.3125 C115.46781291 124.43990965 122.19829881 124.60055272 129.12109375 129.390625 C133.85724406 133.66619555 137.84007562 139.21325619 138.48828125 145.6953125 C138.7184262 154.19856289 136.66321805 159.55071892 132.125 166.625 C126.83700089 171.5681296 120.87732507 173.50998282 113.6875 173.8125 C107.40236647 173.53730348 102.14575099 171.93483244 97.4296875 167.6640625 C93.37617159 163.17973814 91.25 159.4716369 91.25 153.3125 C84.65 153.3125 78.05 153.3125 71.25 153.3125 C70.59 154.9625 69.93 156.6125 69.25 158.3125 C67.7793932 160.29139233 67.7793932 160.29139233 66.08003235 162.16386414 C65.45537394 162.85280447 64.83071552 163.5417448 64.18712807 164.25156212 C61.17275996 167.45859088 58.09422688 170.59132836 54.96948242 173.69067383 C54.27916931 174.37952667 53.5888562 175.06837952 52.87762451 175.77810669 C51.39357371 177.25838073 49.90836987 178.73749956 48.4221096 180.21555519 C46.07044716 182.55436138 43.72200428 184.89635859 41.37434387 187.23918152 C36.39820716 192.20394518 31.41813371 197.16474826 26.4375 202.125 C20.64655625 207.89233672 14.85724083 213.66128861 9.07210732 219.43445396 C6.75747632 221.74259936 4.43985757 224.04771606 2.12211609 226.35273743 C0.70911198 227.76211048 -0.70375274 229.17162329 -2.11645508 230.58129883 C-3.08502693 231.5421212 -3.08502693 231.5421212 -4.07316589 232.52235413 C-4.66320404 233.11232178 -5.25324219 233.70228943 -5.86116028 234.31013489 C-6.37380338 234.82055737 -6.88644648 235.33097986 -7.41462421 235.8568697 C-9.97046314 238.64286943 -10.99731222 240.62792077 -11.1640625 244.32421875 C-11.22207031 245.46020508 -11.22207031 245.46020508 -11.28125 246.61914062 C-11.3121875 247.40482422 -11.343125 248.19050781 -11.375 249 C-11.43300781 250.19592773 -11.43300781 250.19592773 -11.4921875 251.41601562 C-11.58632494 253.38113475 -11.66924632 255.3467854 -11.75 257.3125 C-10.68136719 257.57804687 -9.61273438 257.84359375 -8.51171875 258.1171875 C-2.27325337 260.0995036 2.34446258 264.27932897 5.75 269.875 C8.53718052 276.2581411 8.33483809 284.08841171 6.625 290.74609375 C3.87415777 297.04601368 -1.49865418 301.61293287 -7.5 304.75 C-16.34456545 306.28079017 -23.89700022 306.08581688 -31.5859375 301.12890625 C-37.60529221 296.64613787 -40.05786623 290.88972429 -41.1640625 283.57421875 C-41.5411249 276.55887365 -39.88715275 271.00482343 -35.75 265.3125 C-31.38823415 260.98655974 -27.65451489 259.28067163 -21.75 257.3125 C-21.75 251.3725 -21.75 245.4325 -21.75 239.3125 C-23.07 238.6525 -24.39 237.9925 -25.75 237.3125 C-27.25803947 235.93903255 -27.25803947 235.93903255 -28.69088745 234.34666443 C-29.23430346 233.75137216 -29.77771946 233.15607988 -30.33760262 232.54274845 C-30.91568106 231.90014293 -31.4937595 231.2575374 -32.08935547 230.59545898 C-38.66891431 223.41579039 -45.46951451 216.50858736 -52.40491104 209.67411995 C-54.3851749 207.72118913 -56.3604523 205.76333331 -58.33444214 203.80406189 C-63.9340273 198.24659205 -69.53688711 192.69252187 -75.15527344 187.15405273 C-78.62304895 183.73490502 -82.08088616 180.30597332 -85.53252792 176.87054253 C-86.83734194 175.57556989 -88.14578891 174.28424639 -89.45804214 172.99681282 C-91.28759143 171.2011855 -93.10418083 169.39331543 -94.91845703 167.58227539 C-95.45247635 167.06420822 -95.98649567 166.54614105 -96.53669739 166.01237488 C-100.6212835 161.8945774 -101.95254765 158.90740471 -104.75 153.3125 C-110.69 152.9825 -116.63 152.6525 -122.75 152.3125 C-123.08 154.6225 -123.41 156.9325 -123.75 159.3125 C-126.90514809 165.25874064 -131.52765652 169.73713208 -137.5625 172.6875 C-145.1953498 174.18413722 -152.75597977 173.98468502 -159.75 170.3125 C-164.50400799 166.7400707 -168.59283754 162.28263908 -169.75 156.3125 C-170.50809131 148.6889975 -171.17730553 141.28773581 -166.30859375 134.95703125 C-161.49959226 129.88287178 -157.16024154 125.84222175 -149.953125 124.9765625 C-141.99844856 124.87134191 -135.73240719 125.65814551 -129.7109375 131.18359375 C-126.32464921 134.86949191 -124.65598811 137.54752972 -122.75 142.3125 C-116.81 142.6425 -110.87 142.9725 -104.75 143.3125 C-103.76 140.3425 -103.76 140.3425 -102.75 137.3125 C-101.39257813 135.34570312 -101.39257813 135.34570312 -99.78125 133.59375 C-99.15863281 132.91570312 -98.53601563 132.23765625 -97.89453125 131.5390625 C-92.84788403 126.29937413 -87.66851344 121.19680533 -82.48828125 116.08984375 C-77.93995152 111.5808935 -73.56969109 107.02496897 -69.40380859 102.16210938 C-66.57423885 98.99753595 -63.4485884 96.16811864 -60.3125 93.3125 C-58.98999993 92.09210471 -57.66837707 90.87075808 -56.34765625 89.6484375 C-55.72391113 89.0719043 -55.10016602 88.49537109 -54.45751953 87.90136719 C-49.8549224 83.61859594 -45.47703936 79.20115861 -41.375 74.4375 C-38.55955285 71.19039391 -35.6660106 68.03621954 -32.6875 64.9375 C-31.49447266 63.68839844 -31.49447266 63.68839844 -30.27734375 62.4140625 C-27.75 60.3125 -27.75 60.3125 -21.75 58.3125 C-21.75 53.0325 -21.75 47.7525 -21.75 42.3125 C-24.06 41.6525 -26.37 40.9925 -28.75 40.3125 C-34.91265383 36.52252039 -39.00887576 31.3422891 -40.75 24.3125 C-41.55904293 17.92443183 -41.54911754 11.85364605 -38.2109375 6.1953125 C-27.52297335 -7.57901563 -14.24214444 -8.73949773 0 0 Z " fill="#090907" transform="translate(303.75,345.6875)"/>
<path d="M0 0 C17.3559375 -0.0928125 17.3559375 -0.0928125 35.0625 -0.1875 C40.49601929 -0.22846802 40.49601929 -0.22846802 46.03930664 -0.27026367 C50.54187012 -0.28381348 50.54187012 -0.28381348 52.6650238 -0.28633118 C54.11439293 -0.29086877 55.56375243 -0.3012716 57.01304626 -0.31672668 C71.97486164 -0.46797909 86.09958688 0.10300713 97.734375 10.55859375 C104.52475805 17.56747923 106.37356708 26.15674143 106.4375 35.625 C106.24925655 46.27586078 104.3079369 52.23539732 97.03515625 60.0546875 C95.11862912 61.88660787 93.15824264 63.4646059 91 65 C91.97839844 65.52787109 91.97839844 65.52787109 92.9765625 66.06640625 C101.47298436 70.86600739 106.18296781 74.8844889 109.375 84.25 C112.62361301 96.14345767 111.37501257 107.74385167 105.8125 118.8125 C101.72796765 125.53064126 96.23448172 130.36493586 88.565979 132.38894653 C77.89999749 134.9289069 67.53777868 135.26980897 56.640625 135.1953125 C55.18343255 135.19236354 53.72623797 135.19032837 52.26904297 135.18920898 C46.92932919 135.17882044 41.58966108 135.15089843 36.25 135.125 C24.2875 135.08375 12.325 135.0425 0 135 C0 90.45 0 45.9 0 0 Z " fill="#FBB700" transform="translate(733,374)"/>
<path d="M0 0 C5.21926448 5.36424405 7.56610962 10.32673786 7.75 17.875 C7.43467872 25.38139816 5.88392202 31.96749706 0.25 37.3125 C-8.27209945 42.3125 -8.27209945 42.3125 -11.75 42.3125 C-11.75 47.5925 -11.75 52.8725 -11.75 58.3125 C-8.78 59.3025 -8.78 59.3025 -5.75 60.3125 C-3.765625 61.6875 -3.765625 61.6875 -2 63.3125 C-1.32582031 63.93253906 -0.65164063 64.55257812 0.04296875 65.19140625 C5.29316761 70.23717259 10.51320172 75.25892722 15.23754883 80.80664062 C19.45649867 85.63926836 23.97985976 90.14128557 28.54149246 94.648592 C30.07530421 96.16473036 31.60530373 97.68462663 33.1343689 99.20555115 C37.4765268 103.5234947 41.82444282 107.83560578 46.17675781 112.14331055 C48.85402896 114.79365922 51.52629202 117.44897495 54.19562912 120.10731316 C55.20552747 121.11105008 56.21731303 122.11289225 57.23109818 123.11270332 C67.79516042 133.53230523 67.79516042 133.53230523 71.25 139.3125 C71.25 140.6325 71.25 141.9525 71.25 143.3125 C77.85 143.3125 84.45 143.3125 91.25 143.3125 C91.58 141.6625 91.91 140.0125 92.25 138.3125 C95.47174632 132.50686989 99.33169934 129.15783686 105.25 126.3125 C105.91 125.9825 106.57 125.6525 107.25 125.3125 C115.46781291 124.43990965 122.19829881 124.60055272 129.12109375 129.390625 C133.85724406 133.66619555 137.84007562 139.21325619 138.48828125 145.6953125 C138.7184262 154.19856289 136.66321805 159.55071892 132.125 166.625 C126.83700089 171.5681296 120.87732507 173.50998282 113.6875 173.8125 C107.40236647 173.53730348 102.14575099 171.93483244 97.4296875 167.6640625 C93.37617159 163.17973814 91.25 159.4716369 91.25 153.3125 C84.65 153.3125 78.05 153.3125 71.25 153.3125 C70.59 154.9625 69.93 156.6125 69.25 158.3125 C67.7793932 160.29139233 67.7793932 160.29139233 66.08003235 162.16386414 C65.45537394 162.85280447 64.83071552 163.5417448 64.18712807 164.25156212 C61.17275996 167.45859088 58.09422688 170.59132836 54.96948242 173.69067383 C54.27916931 174.37952667 53.5888562 175.06837952 52.87762451 175.77810669 C51.39357371 177.25838073 49.90836987 178.73749956 48.4221096 180.21555519 C46.07044716 182.55436138 43.72200428 184.89635859 41.37434387 187.23918152 C36.39820716 192.20394518 31.41813371 197.16474826 26.4375 202.125 C20.64655625 207.89233672 14.85724083 213.66128861 9.07210732 219.43445396 C6.75747632 221.74259936 4.43985757 224.04771606 2.12211609 226.35273743 C0.70911198 227.76211048 -0.70375274 229.17162329 -2.11645508 230.58129883 C-3.08502693 231.5421212 -3.08502693 231.5421212 -4.07316589 232.52235413 C-4.66320404 233.11232178 -5.25324219 233.70228943 -5.86116028 234.31013489 C-6.37380338 234.82055737 -6.88644648 235.33097986 -7.41462421 235.8568697 C-9.97046314 238.64286943 -10.99731222 240.62792077 -11.1640625 244.32421875 C-11.22207031 245.46020508 -11.22207031 245.46020508 -11.28125 246.61914062 C-11.3121875 247.40482422 -11.343125 248.19050781 -11.375 249 C-11.43300781 250.19592773 -11.43300781 250.19592773 -11.4921875 251.41601562 C-11.58632494 253.38113475 -11.66924632 255.3467854 -11.75 257.3125 C-10.68136719 257.57804687 -9.61273438 257.84359375 -8.51171875 258.1171875 C-2.27325337 260.0995036 2.34446258 264.27932897 5.75 269.875 C8.53718052 276.2581411 8.33483809 284.08841171 6.625 290.74609375 C3.87415777 297.04601368 -1.49865418 301.61293287 -7.5 304.75 C-16.34456545 306.28079017 -23.89700022 306.08581688 -31.5859375 301.12890625 C-37.60529221 296.64613787 -40.05786623 290.88972429 -41.1640625 283.57421875 C-41.5411249 276.55887365 -39.88715275 271.00482343 -35.75 265.3125 C-31.38823415 260.98655974 -27.65451489 259.28067163 -21.75 257.3125 C-21.75 251.3725 -21.75 245.4325 -21.75 239.3125 C-23.07 238.6525 -24.39 237.9925 -25.75 237.3125 C-27.25803947 235.93903255 -27.25803947 235.93903255 -28.69088745 234.34666443 C-29.23430346 233.75137216 -29.77771946 233.15607988 -30.33760262 232.54274845 C-30.91568106 231.90014293 -31.4937595 231.2575374 -32.08935547 230.59545898 C-38.66891431 223.41579039 -45.46951451 216.50858736 -52.40491104 209.67411995 C-54.3851749 207.72118913 -56.3604523 205.76333331 -58.33444214 203.80406189 C-63.9340273 198.24659205 -69.53688711 192.69252187 -75.15527344 187.15405273 C-78.62304895 183.73490502 -82.08088616 180.30597332 -85.53252792 176.87054253 C-86.83734194 175.57556989 -88.14578891 174.28424639 -89.45804214 172.99681282 C-91.28759143 171.2011855 -93.10418083 169.39331543 -94.91845703 167.58227539 C-95.45247635 167.06420822 -95.98649567 166.54614105 -96.53669739 166.01237488 C-100.6212835 161.8945774 -101.95254765 158.90740471 -104.75 153.3125 C-110.69 152.9825 -116.63 152.6525 -122.75 152.3125 C-123.08 154.6225 -123.41 156.9325 -123.75 159.3125 C-126.90514809 165.25874064 -131.52765652 169.73713208 -137.5625 172.6875 C-145.1953498 174.18413722 -152.75597977 173.98468502 -159.75 170.3125 C-164.50400799 166.7400707 -168.59283754 162.28263908 -169.75 156.3125 C-170.50809131 148.6889975 -171.17730553 141.28773581 -166.30859375 134.95703125 C-161.49959226 129.88287178 -157.16024154 125.84222175 -149.953125 124.9765625 C-141.99844856 124.87134191 -135.73240719 125.65814551 -129.7109375 131.18359375 C-126.32464921 134.86949191 -124.65598811 137.54752972 -122.75 142.3125 C-116.81 142.6425 -110.87 142.9725 -104.75 143.3125 C-103.76 140.3425 -103.76 140.3425 -102.75 137.3125 C-101.39257813 135.34570312 -101.39257813 135.34570312 -99.78125 133.59375 C-99.15863281 132.91570312 -98.53601563 132.23765625 -97.89453125 131.5390625 C-92.84788403 126.29937413 -87.66851344 121.19680533 -82.48828125 116.08984375 C-77.93995152 111.5808935 -73.56969109 107.02496897 -69.40380859 102.16210938 C-66.57423885 98.99753595 -63.4485884 96.16811864 -60.3125 93.3125 C-58.98999993 92.09210471 -57.66837707 90.87075808 -56.34765625 89.6484375 C-55.72391113 89.0719043 -55.10016602 88.49537109 -54.45751953 87.90136719 C-49.8549224 83.61859594 -45.47703936 79.20115861 -41.375 74.4375 C-38.55955285 71.19039391 -35.6660106 68.03621954 -32.6875 64.9375 C-31.49447266 63.68839844 -31.49447266 63.68839844 -30.27734375 62.4140625 C-27.75 60.3125 -27.75 60.3125 -21.75 58.3125 C-21.75 53.0325 -21.75 47.7525 -21.75 42.3125 C-24.06 41.6525 -26.37 40.9925 -28.75 40.3125 C-34.91265383 36.52252039 -39.00887576 31.3422891 -40.75 24.3125 C-41.55904293 17.92443183 -41.54911754 11.85364605 -38.2109375 6.1953125 C-27.52297335 -7.57901563 -14.24214444 -8.73949773 0 0 Z M-23.40039062 70.23388672 C-24.09551254 70.87192734 -24.79063446 71.50996796 -25.50682068 72.16734314 C-29.62036359 76.10113243 -33.67140272 80.09181494 -37.69140625 84.12109375 C-38.61791489 85.04664566 -39.54442352 85.97219757 -40.49900818 86.92579651 C-42.44782361 88.87314855 -44.39484737 90.82226913 -46.34057617 92.77270508 C-48.81363861 95.25146395 -51.29116533 97.72570431 -53.77006626 100.1986227 C-56.16296201 102.58700145 -58.55200318 104.9792208 -60.94140625 107.37109375 C-61.82075333 108.2484166 -62.7001004 109.12573944 -63.60609436 110.02964783 C-67.98895245 114.42906047 -72.21556708 118.89484394 -76.26383972 123.60395813 C-78.1261775 125.74496682 -80.09360025 127.75368291 -82.1171875 129.7421875 C-82.85710937 130.474375 -83.59703125 131.2065625 -84.359375 131.9609375 C-85.10703125 132.69570313 -85.8546875 133.43046875 -86.625 134.1875 C-88.14550816 135.68258161 -89.66385411 137.17986644 -91.1796875 138.6796875 C-92.17331299 139.65591064 -92.17331299 139.65591064 -93.18701172 140.65185547 C-95.27130542 142.86637683 -95.71601499 144.0134319 -96.0625 147.0625 C-95.48931203 153.02365491 -91.29997286 157.01269831 -87.18432617 161.08935547 C-85.83723824 162.43137527 -85.83723824 162.43137527 -84.4629364 163.80050659 C-83.48964047 164.76026056 -82.51631724 165.71998684 -81.54296875 166.6796875 C-80.53361029 167.682762 -79.52477427 168.68636246 -78.51643372 169.69046021 C-75.86836377 172.32528065 -73.21478149 174.95447127 -70.55950928 177.58203125 C-66.32033552 181.77797581 -62.08783793 185.98062439 -57.85875893 190.18674088 C-56.39290646 191.64250738 -54.92361499 193.09473168 -53.4539032 194.54660034 C-48.88004548 199.08754238 -44.45790584 203.67580313 -40.26408386 208.57009888 C-38.1070514 211.05240245 -35.80460063 213.37003975 -33.47265625 215.6875 C-32.54775391 216.60917969 -31.62285156 217.53085937 -30.66992188 218.48046875 C-29.71750432 219.42453607 -28.76502969 220.36854582 -27.8125 221.3125 C-26.8324469 222.28752386 -25.8526276 223.2627828 -24.87304688 224.23828125 C-22.50097687 226.59866618 -20.1265914 228.95666905 -17.75 231.3125 C-14.91993244 230.03652002 -12.99882941 228.77573398 -10.92944336 226.46850586 C-10.37841446 225.86583389 -9.82738556 225.26316193 -9.25965881 224.64222717 C-8.64674484 223.96494064 -8.03383087 223.28765411 -7.40234375 222.58984375 C0.41924057 214.12011819 8.51885594 205.95339051 16.68359375 197.81640625 C17.32779896 197.17382244 17.97200417 196.53123863 18.63573074 195.86918259 C23.31613447 191.20091643 28.00129984 186.53744639 32.6875 181.875 C37.42731919 177.15886737 42.16541848 172.44103021 46.89940071 167.71903801 C48.78143462 165.84347204 50.66645178 163.97094034 52.55162048 162.098526 C53.692681 160.96109372 54.83360376 159.82352322 55.97436523 158.68579102 C56.49732681 158.16799576 57.02028839 157.6502005 57.55909729 157.11671448 C60.8317035 153.84459428 62.10783811 152.34317367 62.75 147.6875 C62.6912012 143.97877014 61.80056223 142.3358486 59.30395508 139.62817383 C58.66575836 138.93358063 58.02756165 138.23898743 57.37002563 137.52334595 C53.59661297 133.58828311 49.76100819 129.7223916 45.88671875 125.88671875 C45.01352493 125.01731155 44.14033112 124.14790436 43.24067688 123.25215149 C40.47537693 120.49898243 37.70684799 117.74909682 34.9375 115 C31.27188151 111.36093251 27.60955698 107.71859642 23.94921875 104.07421875 C22.68521492 102.82266243 22.68521492 102.82266243 21.39567566 101.54582214 C20.61759048 100.77104019 19.83950531 99.99625824 19.0378418 99.19799805 C18.35280075 98.51819382 17.6677597 97.83838959 16.96195984 97.13798523 C15.25 95.3125 15.25 95.3125 13.25 92.3125 C12.59 92.3125 11.93 92.3125 11.25 92.3125 C11.00773682 91.75006592 10.76547363 91.18763184 10.51586914 90.6081543 C7.84868341 85.77121169 3.52454146 82.04479577 -0.3125 78.125 C-1.61670898 76.7337793 -1.61670898 76.7337793 -2.94726562 75.31445312 C-8.35361155 69.68361501 -8.35361155 69.68361501 -15.40234375 66.76171875 C-19.06066555 66.87283788 -20.72981128 67.77418724 -23.40039062 70.23388672 Z " fill="#FABC01" transform="translate(303.75,345.6875)"/>
<path d="M0 0 C1.22088821 0.00007553 2.44177643 0.00015106 3.69966125 0.00022888 C5.00815536 0.00539017 6.31664948 0.01055145 7.66479492 0.01586914 C9.02528328 0.01773578 10.38577232 0.01915852 11.7462616 0.02015686 C15.31531655 0.02396264 18.88433037 0.03377625 22.45336914 0.04486084 C26.10001062 0.05511677 29.74665878 0.05966342 33.39331055 0.06469727 C40.53981329 0.07540036 47.68628146 0.09298135 54.83276367 0.11352539 C54.83276367 7.04352539 54.83276367 13.97352539 54.83276367 21.11352539 C52.10023315 21.13539917 52.10023315 21.13539917 49.3125 21.15771484 C43.28535487 21.20941617 37.25848486 21.2747154 31.23158741 21.3492403 C27.57840505 21.39391757 23.92533352 21.43317917 20.27197266 21.45996094 C16.74450188 21.48602085 13.21745821 21.52644131 9.6902523 21.57671165 C7.69348688 21.60145115 5.69655612 21.61141837 3.69966125 21.62117004 C2.47877304 21.6409642 1.25788483 21.66075836 0 21.68115234 C-1.07255539 21.6922554 -2.14511078 21.70335846 -3.25016785 21.71479797 C-7.79803198 22.33643512 -10.36775317 24.27082693 -13.47973633 27.55102539 C-16.21736572 33.33046523 -16.18978107 40.04589118 -14.16723633 46.11352539 C-4.85198522 50.70461344 6.45033517 52.27139725 16.54296875 54.2824707 C52.20648466 61.39754441 52.20648466 61.39754441 61.51245117 74.79711914 C67.56713647 85.41968832 68.22936336 96.50839451 65.70776367 108.30102539 C62.99007874 117.86980442 58.4674441 125.01737086 49.83276367 130.11352539 C39.3368484 135.65853723 27.67276099 135.39536336 16.10229492 135.30883789 C14.61586194 135.30509855 13.12942646 135.30225594 11.64299011 135.30026245 C7.76818803 135.29269841 3.89354063 135.2731139 0.01879883 135.25085449 C-3.95009266 135.23023846 -7.91900963 135.22122736 -11.88793945 135.21118164 C-19.6477831 135.18985963 -27.40746816 135.15473836 -35.16723633 135.11352539 C-35.16723633 128.51352539 -35.16723633 121.91352539 -35.16723633 115.11352539 C-32.48969238 115.09165161 -32.48969238 115.09165161 -29.75805664 115.06933594 C-23.81478144 115.01737998 -17.87177597 114.95201536 -11.92874527 114.87781048 C-8.33069411 114.83336349 -4.73274951 114.79405366 -1.13452148 114.76708984 C2.34758941 114.74079702 5.82928435 114.70021927 9.31113434 114.65033913 C11.26492306 114.62589735 13.21887357 114.61569347 15.17279053 114.60588074 C28.43548647 114.60058521 28.43548647 114.60058521 40.08856201 109.20927429 C44.17057119 104.30452821 44.31526779 98.1930773 43.83276367 92.11352539 C42.21559573 87.82803036 40.66012357 85.55663428 36.83276367 83.11352539 C26.67651529 79.39249715 15.91038229 77.66555416 5.2890625 75.83447266 C-7.4992305 73.61021579 -23.44297908 70.60579856 -31.97973633 59.82446289 C-38.71220127 49.36972166 -39.6495716 37.57545835 -37.54223633 25.42602539 C-35.47661576 17.62256992 -31.14122401 10.90295837 -24.44848633 6.35961914 C-16.75654756 2.1580293 -8.7363722 -0.01808773 0 0 Z " fill="#FBB800" transform="translate(510.167236328125,373.886474609375)"/>
<path d="M0 0 C7.59 0 15.18 0 23 0 C33.42451427 28.57128654 43.82014394 57.14978148 53.97265625 85.8190918 C54.28227295 86.69329269 54.59188965 87.56749359 54.91088867 88.46818542 C55.49901218 90.12988715 56.08644712 91.79183278 56.6730957 93.45405579 C58.51224291 98.65749247 60.40459044 103.83818853 62.37109375 108.99511719 C63 111 63 111 63 114 C65.43666929 113.9083416 65.43666929 113.9083416 68 113 C69.48565209 110.73848544 69.48565209 110.73848544 70.39331055 107.7890625 C70.79592102 106.66431519 71.19853149 105.53956787 71.61334229 104.3807373 C72.24366364 102.52164734 72.24366364 102.52164734 72.88671875 100.625 C73.34470405 99.32327311 73.80460538 98.02221894 74.26629639 96.72180176 C75.24995617 93.93935322 76.22085621 91.15290462 77.18185425 88.36254883 C78.68548565 83.99702271 80.21589822 79.64123019 81.75219727 75.28710938 C83.3119003 70.86366799 84.87050261 66.43987869 86.41990662 62.01281738 C91.28376867 48.12223829 96.33546384 34.30493726 101.4375 20.5 C102.21401935 18.39331524 102.99031237 16.28654703 103.76635742 14.1796875 C105.50783313 9.45198032 107.25390411 4.72601235 109 0 C116.26 0 123.52 0 131 0 C125.25248301 17.62571877 119.14370314 35.07364941 112.68701172 52.45263672 C110.76327748 57.63324829 108.85257214 62.81864784 106.94140625 68.00390625 C98.69743456 90.36253729 90.39057519 112.69593936 82 135 C71.77 135 61.54 135 51 135 C48.42232748 129.20023682 45.94236427 123.45517617 43.6796875 117.5390625 C43.37983948 116.76029251 43.07999146 115.98152252 42.77105713 115.17915344 C41.80302243 112.66212275 40.83874646 110.14367544 39.875 107.625 C39.54030701 106.75231476 39.20561401 105.87962952 38.86077881 104.98049927 C33.65308871 91.40110402 28.53520452 77.79149946 23.52294922 64.13867188 C21.61906522 58.95901845 19.70134045 53.78448748 17.78515625 48.609375 C16.6352629 45.50271498 15.48544165 42.39602828 14.33563232 39.28933716 C13.58046079 37.24913756 12.82513476 35.20899514 12.06964111 33.16891479 C7.98403243 22.134035 3.92881515 11.09176302 0 0 Z " fill="#FBB900" transform="translate(585,374)"/>
<path d="M0 0 C5.30035883 1.87443411 8.95512332 6.29658388 12.73901367 10.3059082 C14.23295034 11.88880771 15.75278564 13.44268263 17.27978516 14.99365234 C24.66064453 22.58003155 24.66064453 22.58003155 24.66064453 24.94091797 C26.14564453 25.43591797 26.14564453 25.43591797 27.66064453 25.94091797 C29.15444946 27.45596313 29.15444946 27.45596313 30.76074219 29.41210938 C34.94352517 34.33825494 39.46895627 38.85730959 44.05908203 43.40185547 C45.37243027 44.70952377 45.37243027 44.70952377 46.71231079 46.04360962 C49.957595 49.27469112 53.20749281 52.50110699 56.45751953 55.72741699 C59.66075894 58.90783895 62.86027636 62.0919752 66.05908203 65.27685547 C67.33082779 66.53615372 67.33082779 66.53615372 68.62826538 67.82089233 C69.40642609 68.59574982 70.18458679 69.3706073 70.98632812 70.16894531 C71.67358978 70.85097015 72.36085144 71.532995 73.06893921 72.23568726 C75.79052467 75.15138468 76.20329824 77.78492796 76.10791016 81.76782227 C74.43415775 89.89995664 62.44528155 98.26868034 56.65234375 104.02438354 C54.62273038 106.04109103 52.59638195 108.06103018 50.57080078 110.08178711 C45.54215752 115.09714742 40.50805662 120.10701805 35.47412109 125.11706543 C31.2096018 129.36177085 26.94719351 133.60857539 22.6875 137.85812378 C20.70274467 139.83645411 18.7149743 141.81171926 16.72705078 143.78686523 C8.60124357 151.85379309 8.60124357 151.85379309 1.09033203 160.48999023 C-0.5603516 162.16519735 -2.19689741 163.00273053 -4.33935547 163.94091797 C-8.05970896 160.24550239 -11.77659773 156.54664715 -15.49047852 152.84472656 C-16.75127762 151.58891977 -18.01297723 150.33401633 -19.27563477 149.08007812 C-21.10270689 147.26529735 -22.92638831 145.4471646 -24.74951172 143.62841797 C-25.30397476 143.07911621 -25.85843781 142.52981445 -26.42970276 141.96386719 C-29.2835379 139.1104312 -32.00940193 136.19948337 -34.63867188 133.13720703 C-38.89733142 128.21799415 -43.51141259 123.68111364 -48.14013672 119.11279297 C-49.5419566 117.72038127 -50.94377075 116.32796375 -52.34524059 114.93519974 C-55.76850573 111.5347315 -59.19734242 108.13989721 -62.62866211 104.74755859 C-64.5673602 102.8304677 -66.50336102 100.91072486 -68.43656921 98.98809814 C-70.24972062 97.18527891 -72.0669772 95.3865769 -73.88874817 93.59246826 C-74.70687485 92.77772034 -75.52500153 91.96297241 -76.36791992 91.12353516 C-77.08849075 90.41042175 -77.80906158 89.69730835 -78.5514679 88.96258545 C-81.02935025 86.16070112 -82.15511997 83.84162484 -82.90185547 80.19091797 C-81.42545434 71.66060033 -70.6357232 64.16937215 -64.65576172 58.29638672 C-63.94291016 57.59126953 -63.23005859 56.88615234 -62.49560547 56.15966797 C-61.86460937 55.54027344 -61.23361328 54.92087891 -60.58349609 54.28271484 C-58.71813041 52.33617572 -56.96164086 50.35517985 -55.20581055 48.31176758 C-50.80111247 43.24664687 -46.06979416 38.52783901 -41.31982422 33.78857422 C-40.3704039 32.83847862 -39.42113193 31.88823477 -38.47200012 30.93785095 C-36.4994705 28.9638592 -34.52517408 26.99165711 -32.54956055 25.02075195 C-30.01637886 22.49331397 -27.48777719 19.96134847 -24.96044445 17.42806339 C-23.00890739 15.47292042 -21.05500454 13.52015579 -19.10036659 11.56811333 C-17.71303682 10.18177382 -16.32771882 8.79342206 -14.94242859 7.40504456 C-13.68520744 6.15255165 -13.68520744 6.15255165 -12.40258789 4.87475586 C-11.66425217 4.13721573 -10.92591644 3.3996756 -10.16520691 2.63978577 C-6.96965614 -0.33352202 -4.33584389 -0.54295781 0 0 Z M-41.71826172 41.94482422 C-52.61587742 55.36333416 -56.03138178 68.9651179 -54.33935547 85.94091797 C-51.92064 99.58018328 -44.23879322 111.54815519 -32.99560547 119.62451172 C-25.21364538 124.56211614 -16.60051394 128.25490623 -7.33935547 128.94091797 C-6.03998047 129.04404297 -4.74060547 129.14716797 -3.40185547 129.25341797 C7.69524262 129.08240105 18.77207484 125.51647696 27.66064453 118.94091797 C28.60810547 118.26416016 28.60810547 118.26416016 29.57470703 117.57373047 C39.02183028 110.20747137 45.13555312 98.52631328 47.66064453 86.94091797 C49.22390034 69.20820659 45.41095804 55.10042328 33.97314453 41.25341797 C24.48254909 31.07978725 12.38194819 25.98741831 -1.41748047 25.47021484 C-17.03294378 25.28607023 -30.87144483 30.26563769 -41.71826172 41.94482422 Z " fill="#0A0907" transform="translate(290.33935546875,413.05908203125)"/>
<path d="M0 0 C6.17084724 -0.04622357 12.34107967 -0.0859544 18.51196289 -0.10986328 C20.60573374 -0.11984358 22.69949094 -0.13343259 24.79321289 -0.15087891 C57.89461331 -0.41954628 57.89461331 -0.41954628 66 7 C70.09825555 12.25088992 69.62463729 18.63383361 69 25 C67.8047374 30.11461205 65.15370841 33.81843611 61 37 C53.71475172 40.07969831 46.67603686 40.40661235 38.8671875 40.29296875 C37.74933868 40.28872391 36.63148987 40.28447906 35.47976685 40.28010559 C31.94458906 40.26344759 28.41000257 40.22581916 24.875 40.1875 C22.46354996 40.17243654 20.05209089 40.15875106 17.640625 40.14648438 C11.76001115 40.11615108 5.88065958 40.0574034 0 40 C0 26.8 0 13.6 0 0 Z " fill="#080807" transform="translate(754,449)"/>
<path d="M0 0 C10.53907945 8.33808267 17.57090305 19.90926135 20.5625 33.02734375 C22.30459554 50.15697225 18.48434727 64.18843322 7.75 77.77734375 C4.23531089 81.67745569 0.05705008 84.3707712 -4.4375 87.02734375 C-5.06398438 87.40890625 -5.69046875 87.79046875 -6.3359375 88.18359375 C-18.56753811 94.9961308 -31.68624035 95.13812019 -44.9453125 92.05859375 C-58.5583654 88.03863182 -69.42979432 78.21627863 -76.4375 66.02734375 C-82.3084175 53.7485346 -83.92158937 38.68740577 -79.875 25.52734375 C-73.62231864 9.81885304 -63.18593656 0.0694599 -48.11328125 -7.07421875 C-32.49808422 -12.90607244 -13.37196186 -9.19322378 0 0 Z M-64.6484375 14.81640625 C-72.73316055 24.80757054 -74.60247975 36.54626917 -73.4375 49.02734375 C-71.33149608 60.59144912 -65.74783804 70.00679104 -56.6875 77.4921875 C-45.47742115 85.14073088 -33.63491328 86.30869963 -20.4375 85.02734375 C-9.52248423 82.30738279 0.22133264 75.31537964 6.5625 66.02734375 C12.3732652 54.34575376 14.85737411 42.13937813 11.3671875 29.23046875 C7.28736678 18.06047416 0.04261226 8.58034739 -10.625 3.02734375 C-30.38634253 -6.12953047 -50.01832418 -0.39658011 -64.6484375 14.81640625 Z " fill="#F8BD01" transform="translate(317.4375,447.97265625)"/>
<path d="M0 0 C6.83225156 -0.06903847 13.66328246 -0.12872395 20.49560547 -0.16479492 C22.8175874 -0.17983911 25.13954112 -0.20027945 27.46142578 -0.22631836 C30.80768823 -0.26289345 34.15357344 -0.27977054 37.5 -0.29296875 C38.5305249 -0.30845261 39.5610498 -0.32393646 40.62280273 -0.33988953 C48.03450894 -0.34160252 53.42508068 0.77560576 59.8125 4.75 C63.67986206 8.72785812 65.15802612 12.96598487 65.375 18.4375 C65.15007562 23.71872456 64.24857848 28.53905577 60.59375 32.5390625 C53.20094849 38.50212409 43.23104771 38.29548682 34.1796875 38.1953125 C33.19501495 38.1924826 32.21034241 38.18965271 31.1958313 38.18673706 C28.08875739 38.17565195 24.98198496 38.15056991 21.875 38.125 C19.75260837 38.11495509 17.63021216 38.1058319 15.5078125 38.09765625 C10.33833555 38.07746298 5.16950032 38.03829259 0 38 C0 25.46 0 12.92 0 0 Z " fill="#0B0A06" transform="translate(754,393)"/>
<path d="M0 0 C5.27897102 3.89638337 9.31036917 8.36434586 10.625 14.9375 C11.24438112 20.97365057 10.87572207 26.68305416 7.625 31.9375 C3.86923504 35.90831899 0.19075317 39.73684494 -5.421875 40.17578125 C-15.41359158 40.37603717 -15.41359158 40.37603717 -19.9375 38.3125 C-25.76330271 32.63607685 -28.93111986 28.37630137 -29.75 20.1875 C-29.55674412 14.25340781 -27.62453344 8.46822512 -23.65625 4.00390625 C-16.88627985 -1.97719026 -8.58402293 -2.70237759 0 0 Z " fill="#F7C401" transform="translate(605.375,539.0625)"/>
<path d="M0 0 C5.22153893 2.74757834 7.69541646 6.94477037 9.9765625 12.19140625 C11.73080823 19.50076346 10.74923591 25.53160713 7.7265625 32.31640625 C5.01307456 36.62055953 2.37192479 38.33813216 -2.2734375 40.31640625 C-8.66968388 41.27361713 -15.33560561 41.63253343 -20.8984375 37.94140625 C-25.61229848 33.64228412 -27.71747622 28.18257381 -28.61328125 21.953125 C-28.83892026 16.72732561 -28.05016512 11.80469057 -25.2734375 7.31640625 C-18.06681155 -0.30286904 -10.54244919 -3.16998043 0 0 Z " fill="#F8C201" transform="translate(773.2734375,538.68359375)"/>
<path d="M0 0 C4.455 0.99 4.455 0.99 9 2 C8.46696042 7.52645632 7.43947557 12.42652155 5.4375 17.625 C5.17428955 18.31303711 4.9110791 19.00107422 4.63989258 19.70996094 C-3.7593368 40.89168392 -18.90081888 59.34623179 -37 73 C-37.79921875 73.60328125 -38.5984375 74.2065625 -39.421875 74.828125 C-49.85710479 82.39878191 -67.44815203 95 -81 95 C-81.66 92.03 -82.32 89.06 -83 86 C-81.9790625 85.5978125 -81.9790625 85.5978125 -80.9375 85.1875 C-62.52132785 77.74266445 -46.46652608 68.83437536 -32 55 C-31.26394531 54.33871094 -30.52789062 53.67742188 -29.76953125 52.99609375 C-14.73329564 38.97114478 -5.20055165 19.67313946 0 0 Z " fill="#F8BD01" transform="translate(402,525)"/>
<path d="M0 0 C0.38929688 1.16273438 0.77859375 2.32546875 1.1796875 3.5234375 C6.84252091 19.9280336 14.05992993 35.18811529 26 48 C26.47276367 48.51369141 26.94552734 49.02738281 27.43261719 49.55664062 C43.47697827 66.84149225 62.15925293 76.7155787 84 85 C83.01 87.97 82.02 90.94 81 94 C49.58150137 85.82258255 22.0750997 64.432477 5 37 C0.41393906 29.09555349 -3.24097959 20.7770528 -6.5 12.25 C-6.75555664 11.58242676 -7.01111328 10.91485352 -7.27441406 10.22705078 C-8.49039766 6.90148102 -9 4.59800991 -9 1 C-5.846632 0.29925156 -3.27275026 0 0 0 Z " fill="#F9BD01" transform="translate(172,526)"/>
<path d="M0 0 C5.8485755 0.5227777 10.66841418 1.71071599 16.0625 4 C16.7942041 4.30760254 17.5259082 4.61520508 18.27978516 4.93212891 C30.4585567 10.21616549 41.03230449 17.24004674 51 26 C52.26070313 27.06154297 52.26070313 27.06154297 53.546875 28.14453125 C71.01381209 43.19755933 84.78694433 64.70609435 91 87 C91 88.32 91 89.64 91 91 C86.545 91.99 86.545 91.99 82 93 C81.75507813 92.13761719 81.51015625 91.27523437 81.2578125 90.38671875 C72.18398047 60.75596382 52.39191291 34.80260128 25.0546875 19.78515625 C16.65394234 15.35677792 8.02592662 11.93342615 -1 9 C-0.67 6.03 -0.34 3.06 0 0 Z " fill="#F8BD01" transform="translate(320,371)"/>
<path d="M0 0 C0.99 4.455 0.99 4.455 2 9 C0.07800781 9.72703125 0.07800781 9.72703125 -1.8828125 10.46875 C-16.15146152 15.95903288 -29.28428155 21.95184732 -41 32 C-41.80953125 32.68835938 -42.6190625 33.37671875 -43.453125 34.0859375 C-61.85385967 50.17246934 -72.40769703 69.4452047 -81 92 C-83.97 91.67 -86.94 91.34 -90 91 C-88.76062663 84.63956103 -87.0113604 79.06849313 -84.3125 73.1875 C-83.95655762 72.40415283 -83.60061523 71.62080566 -83.23388672 70.8137207 C-68.44921885 38.79343312 -43.0442973 14.92434201 -9.99829102 2.67114258 C-2.5426064 0 -2.5426064 0 0 0 Z " fill="#F9BE01" transform="translate(253,371)"/>
<path d="M0 0 C4.64791678 3.35082373 8.47744342 7.60077352 10.6875 12.9375 C11.52932359 18.85213066 10.61352672 23.6908314 7.6875 28.9375 C3.87383117 33.47267375 0.12246826 36.45807958 -5.859375 37.29296875 C-11.73628163 37.5933079 -15.84830805 36.9055237 -20.65625 33.4375 C-24.58418699 29.8801231 -26.98940775 25.79455862 -27.5859375 20.51953125 C-27.8375604 13.65796835 -27.06283046 9.05858795 -22.3125 3.9375 C-15.82939886 -2.07623635 -8.25501932 -2.64783639 0 0 Z " fill="#FBB900" transform="translate(295.3125,472.0625)"/>
<path d="M0 0 C8 0 8 0 10.1796875 2.09765625 C10.73914063 3.07605469 11.29859375 4.05445313 11.875 5.0625 C12.52210938 6.14144531 13.16921875 7.22039063 13.8359375 8.33203125 C14.1772168 8.91936035 14.51849609 9.50668945 14.87011719 10.11181641 C16.94500465 13.57922773 19.2408795 16.90109509 21.5 20.25 C23.7275 23.59125 23.7275 23.59125 26 27 C26.33 18.09 26.66 9.18 27 0 C29.31 0 31.62 0 34 0 C34 13.53 34 27.06 34 41 C31.69 41 29.38 41 27 41 C24.95069114 38.92526939 23.66261818 37.29996051 22.16015625 34.875 C21.74833603 34.25351074 21.33651581 33.63202148 20.91221619 32.99169922 C19.60565313 31.00861734 18.33423698 29.00555158 17.0625 27 C16.18126617 25.64958401 15.2978256 24.30060531 14.41210938 22.953125 C12.244177 19.65347909 10.12517916 16.32895197 8 13 C7.67 22.24 7.34 31.48 7 41 C4.69 41 2.38 41 0 41 C0 27.47 0 13.94 0 0 Z " fill="#FBBC01" transform="translate(534,538)"/>
<path d="M0 0 C7 0 7 0 9.22167969 2.18237305 C9.80852539 3.11218994 10.39537109 4.04200684 11 5 C11.86093262 6.23520386 11.86093262 6.23520386 12.73925781 7.49536133 C13.58762207 8.77576294 13.58762207 8.77576294 14.453125 10.08203125 C15.01161133 10.9222583 15.57009766 11.76248535 16.14550781 12.62817383 C16.83999023 13.67900146 17.53447266 14.7298291 18.25 15.8125 C21.59125 20.8553125 21.59125 20.8553125 25 26 C25.33 17.42 25.66 8.84 26 0 C28.31 0 30.62 0 33 0 C33 13.53 33 27.06 33 41 C26 41 26 41 24.171875 39.19140625 C23.70265625 38.32386719 23.2334375 37.45632813 22.75 36.5625 C22.18667969 35.57765625 21.62335937 34.5928125 21.04296875 33.578125 C20.57383057 32.73991211 20.57383057 32.73991211 20.09521484 31.88476562 C17.89762622 28.1029145 15.45482624 24.47288219 13.0625 20.8125 C11.391875 18.234375 9.72125 15.65625 8 13 C7.67 22.24 7.34 31.48 7 41 C4.69 41 2.38 41 0 41 C0 27.47 0 13.94 0 0 Z " fill="#FBC501" transform="translate(791,538)"/>
<path d="M0 0 C2.31 0 4.62 0 7 0 C9.07387669 2.11454094 10.40446348 3.7897288 11.9375 6.25 C12.35499512 6.8780957 12.77249023 7.50619141 13.20263672 8.15332031 C14.06251958 9.45114579 14.91243884 10.75562588 15.75244141 12.06640625 C16.94301863 13.91168445 18.16992725 15.72448331 19.41796875 17.53125 C25 25.67212389 25 25.67212389 25 28 C25.66 28 26.32 28 27 28 C27 18.76 27 9.52 27 0 C28.98 0 30.96 0 33 0 C33 13.53 33 27.06 33 41 C31.02 41 29.04 41 27 41 C24.85449219 38.83129883 24.85449219 38.83129883 23 36 C22.39575195 35.14623779 21.79150391 34.29247559 21.16894531 33.4128418 C20.56147461 32.51734619 19.95400391 31.62185059 19.328125 30.69921875 C18.7290332 29.81838623 18.12994141 28.93755371 17.51269531 28.0300293 C16.76600586 26.92699463 16.01931641 25.82395996 15.25 24.6875 C11.66125 19.3971875 11.66125 19.3971875 8 14 C7.67 22.91 7.34 31.82 7 41 C4.69 41 2.38 41 0 41 C0 27.47 0 13.94 0 0 Z " fill="#F9C601" transform="translate(491,538)"/>
<path d="M0 0 C2.64 0 5.28 0 8 0 C9.65910423 4.22981263 11.31291878 8.46164373 12.9621582 12.6953125 C13.52228154 14.13108085 14.08377127 15.56631701 14.64672852 17.00097656 C17.7493036 24.91047463 20.77670962 32.78731134 23 41 C20.69 41 18.38 41 16 41 C14.515 36.05 14.515 36.05 13 31 C7.06 31.33 1.12 31.66 -5 32 C-5.99 34.97 -6.98 37.94 -8 41 C-10.31 41 -12.62 41 -15 41 C-12.83194185 33.14973618 -10.04366045 25.56315008 -7.12890625 17.96533203 C-6.36615921 15.97695325 -5.60845379 13.9867081 -4.8515625 11.99609375 C-1.16946396 2.33892792 -1.16946396 2.33892792 0 0 Z " fill="#F5C802" transform="translate(670,538)"/>
<path d="M0 0 C3.2509946 2.60079568 4.87107282 4.80071845 6.1875 8.75 C6.73063189 15.15895624 5.7423718 19.36195389 2.1875 24.75 C0.24418864 27.05318383 -0.92664775 27.63344049 -3.890625 28.0234375 C-8.64847002 28.2282454 -12.06202201 27.94893711 -15.8125 24.75 C-19.90280282 19.11712556 -19.5801445 13.4647805 -18.8125 6.75 C-17.62443197 3.45996546 -15.82308718 1.54403279 -13.0625 -0.625 C-8.39863264 -1.92051871 -4.37274106 -1.94344047 0 0 Z " fill="#0B0A07" transform="translate(602.8125,545.25)"/>
<path d="M0 0 C3.56760738 1.94327055 5.69295606 4.07886819 7 8 C7.14554833 10.1216468 7.22080412 12.24856706 7.25 14.375 C7.27578125 15.49648438 7.3015625 16.61796875 7.328125 17.7734375 C6.88768552 22.10442572 5.23497589 24.62252689 2.375 27.8125 C-1.38034748 29.69017374 -4.89689614 29.76088754 -9 29 C-12.33972079 27.28424492 -14.45134716 24.92273432 -16.375 21.6875 C-17.92783259 15.01031988 -17.34739825 10.00223135 -14 4 C-10.04996314 -0.53092463 -5.71392451 -1.1849615 0 0 Z " fill="#0A0907" transform="translate(769,544)"/>
<path d="M0 0 C1.62109375 0.828125 1.62109375 0.828125 3.80859375 2.328125 C3.14859375 3.978125 2.48859375 5.628125 1.80859375 7.328125 C1.18984375 7.163125 0.57109375 6.998125 -0.06640625 6.828125 C-4.42436672 6.13085132 -8.78587793 6.05073988 -13.19140625 6.328125 C-14.54759124 7.45346605 -14.54759124 7.45346605 -14.25390625 10.390625 C-14.23328125 11.36 -14.21265625 12.329375 -14.19140625 13.328125 C-13.05703125 13.740625 -11.92265625 14.153125 -10.75390625 14.578125 C-9.23166304 15.15776921 -7.71092644 15.74137958 -6.19140625 16.328125 C-5.38960937 16.62976563 -4.5878125 16.93140625 -3.76171875 17.2421875 C-0.20832559 18.67519523 2.2947476 19.75199447 4.87109375 22.640625 C6.09670349 26.15403959 6.26334895 28.62511834 5.80859375 32.328125 C3.69547236 36.32796192 2.05307987 38.74187507 -2.19140625 40.328125 C-15.10105499 41.66575125 -15.10105499 41.66575125 -20.00390625 38.453125 C-22.19140625 36.328125 -22.19140625 36.328125 -23.19140625 34.328125 C-21.87140625 33.008125 -20.55140625 31.688125 -19.19140625 30.328125 C-18.57265625 30.823125 -17.95390625 31.318125 -17.31640625 31.828125 C-13.01931639 33.89072813 -8.89671701 33.96937974 -4.19140625 33.328125 C-1.90411891 31.48928619 -1.90411891 31.48928619 -2.06640625 28.703125 C-2.10765625 27.919375 -2.14890625 27.135625 -2.19140625 26.328125 C-6.8739158 23.79703876 -11.63294379 22.10821467 -16.703125 20.48828125 C-19.57587655 19.14886648 -20.6527719 18.07962421 -22.19140625 15.328125 C-23.01354429 11.55999229 -23.04982638 7.8605639 -21.13671875 4.4453125 C-15.90564218 -1.96198247 -7.73993585 -2.37302846 0 0 Z " fill="#F7BD02" transform="translate(855.19140625,538.671875)"/>
<path d="M0 0 C5.87426614 4.73204773 5.87426614 4.73204773 6.671875 9.1484375 C6.90858664 13.52760281 6.78918085 16.79795942 4 20.3125 C-0.26974151 24.19408319 -2.77982849 25.29490703 -8.72265625 25.12890625 C-13.1044439 24.44504344 -15.83155653 21.88401738 -18.625 18.625 C-20.23123136 14.60942159 -20.55996194 11.07229982 -19.75 6.8125 C-18.07969358 3.68398956 -15.76181885 1.58008672 -12.9375 -0.5625 C-8.36163222 -1.8698908 -4.31624142 -1.86383152 0 0 Z " fill="#090807" transform="translate(293.75,615.1875)"/>
<path d="M0 0 C3.00434566 1.79634834 5.40783628 3.81567256 7 7 C7.62133059 11.30212445 7.97036679 15.33395487 5.73046875 19.1796875 C3.10454037 22.25924341 1.01332773 24.70922689 -3.13671875 25.30859375 C-8.09743834 25.55928861 -11.18750897 25.42919359 -15.0625 22.125 C-18.16104098 19.10665655 -19.17257308 17.08037003 -19.3125 12.75 C-19.24513385 8.09425068 -18.18638926 5.52179866 -15 2 C-10.12692408 -1.51314776 -5.62490811 -1.67742795 0 0 Z " fill="#0B0907" transform="translate(293,352)"/>
<path d="M0 0 C3.70910097 1.78586343 5.54021301 3.36223095 7.9375 6.6875 C9.34591214 11.07843196 9.21096443 14.5652519 8 19 C5.78380806 22.59175934 3.83962753 24.3755422 0 26 C-4.00702589 26.77029703 -7.54811616 26.87813383 -11.10546875 24.7265625 C-16.713169 19.9860324 -16.713169 19.9860324 -17.30859375 15.86328125 C-17.55928861 10.90256166 -17.42919359 7.81249103 -14.125 3.9375 C-9.85219532 -0.44883331 -5.95522598 -0.71181994 0 0 Z " fill="#0B0907" transform="translate(162,482)"/>
<path d="M0 0 C4.38410756 2.19205378 7.13092657 4.43115383 9 9 C9.53635899 13.82723092 9.52017901 15.97890786 7.3125 20.3125 C3.73770791 24.4669881 1.56223989 25.82641779 -3.9375 26.4375 C-8.2150513 26.25994127 -10.73416458 24.81013746 -14 22 C-16.96737997 18.43914404 -17.47975619 15.42305623 -17.28515625 10.921875 C-16.6863283 6.8859387 -14.55690524 4.60604393 -11.875 1.6875 C-7.85912736 -0.66964264 -4.55027496 -0.79449245 0 0 Z " fill="#0A0807" transform="translate(422,482)"/>
<path d="M0 0 C2.31 0 4.62 0 7 0 C10.56456425 7.30262499 13.4189075 14.74094756 16.03173828 22.42358398 C17.0257671 25.98764734 17.0257671 25.98764734 19 29 C19.29769287 28.19256348 19.59538574 27.38512695 19.90209961 26.55322266 C21.00632771 23.55988258 22.11157937 20.56692305 23.2175293 17.57421875 C23.69613104 16.27847228 24.17432357 14.98257459 24.65209961 13.68652344 C25.33860592 11.82447308 26.02670252 9.96300928 26.71484375 8.1015625 C27.33540649 6.42054443 27.33540649 6.42054443 27.96850586 4.70556641 C29 2 29 2 30 0 C32.31 0 34.62 0 37 0 C34.57756953 8.94829908 31.19347429 17.50880915 27.8125 26.125 C27.24769143 27.57277805 26.68323563 29.02069378 26.11914062 30.46875 C24.75015196 33.98076571 23.37641585 37.49088884 22 41 C19.69 41 17.38 41 15 41 C4.09310732 11.65458453 4.09310732 11.65458453 0 0 Z " fill="#F6C402" transform="translate(619,538)"/>
<path d="M0 0 C21.45 0 42.9 0 65 0 C65 0.33 65 0.66 65 1 C44.21 1 23.42 1 2 1 C2 44.56 2 88.12 2 133 C27.41 133 52.82 133 79 133 C79 133.33 79 133.66 79 134 C74.8294437 135.00770792 70.92344435 135.12082358 66.6394043 135.11352539 C65.53824768 135.11370619 65.53824768 135.11370619 64.41484547 135.11389065 C62.05127183 135.11314747 59.68777819 135.10554649 57.32421875 135.09765625 C55.85990436 135.09618499 54.39558944 135.09516541 52.93127441 135.09460449 C47.51667489 135.089373 42.10208665 135.07541173 36.6875 135.0625 C24.580625 135.041875 12.47375 135.02125 0 135 C0 90.45 0 45.9 0 0 Z " fill="#FAD000" transform="translate(733,374)"/>
<path d="M0 0 C10.56 0 21.12 0 32 0 C32 1.98 32 3.96 32 6 C27.71 6 23.42 6 19 6 C19 17.55 19 29.1 19 41 C16.69 41 14.38 41 12 41 C12 29.45 12 17.9 12 6 C8.04 6 4.08 6 0 6 C0 4.02 0 2.04 0 0 Z " fill="#FAB200" transform="translate(692,538)"/>
<path d="M0 0 C12.71428571 0 12.71428571 0 17 3 C20.38958303 6.76439269 20.5638822 9.59877639 20.42578125 14.51953125 C19.72867414 18.58065982 18.02589869 20.25558026 15 23 C12 24 12 24 0 24 C0 16.08 0 8.16 0 0 Z " fill="#F6F7F6" transform="translate(562,611)"/>
<path d="M0 0 C11 0 11 0 14.1875 1.125 C16 3 16 3 16.4375 6.0625 C16 9 16 9 14 11 C14.495 11.350625 14.99 11.70125 15.5 12.0625 C17 14 17 14 17.5 17.5 C17.335 18.655 17.17 19.81 17 21 C12 24 12 24 0 24 C0 16.08 0 8.16 0 0 Z " fill="#F4F4F3" transform="translate(475,611)"/>
<path d="M0 0 C1.65 0 3.3 0 5 0 C9.40548114 4.40548114 12.62621213 9.78280227 16 15 C15.67 15.66 15.34 16.32 15 17 C14.01 17 13.02 17 12 17 C10.66666667 15.66666667 9.33333333 14.33333333 8 13 C7.67 22.24 7.34 31.48 7 41 C4.69 41 2.38 41 0 41 C0 27.47 0 13.94 0 0 Z " fill="#F2BA01" transform="translate(791,538)"/>
<path d="M0 0 C3.6196875 -0.0928125 3.6196875 -0.0928125 7.3125 -0.1875 C8.44619019 -0.22846802 8.44619019 -0.22846802 9.6027832 -0.27026367 C12.48623131 -0.30617644 14.51469033 -0.31902827 16.9609375 1.2890625 C18.69638352 4.14667662 18.29449364 6.76056998 18 10 C17.34 10.66 16.68 11.32 16 12 C15.01 12 14.02 12 13 12 C13.61875 13.0725 14.2375 14.145 14.875 15.25 C16.3323679 17.79780984 17.72924491 20.35259355 19 23 C16.875 23 16.875 23 14 22 C12.33603033 20.02536592 10.92607052 17.98227005 9.52734375 15.8125 C7.94042729 13.57032233 7.94042729 13.57032233 4 13 C4 16.3 4 19.6 4 23 C2.68 23 1.36 23 0 23 C0 15.41 0 7.82 0 0 Z " fill="#F5F5F4" transform="translate(790,612)"/>
<path d="M0 0 C2.31 0 4.62 0 7 0 C7 13.53 7 27.06 7 41 C4.69 41 2.38 41 0 41 C0 27.47 0 13.94 0 0 Z " fill="#FDC900" transform="translate(474,538)"/>
<path d="M0 0 C2.31 0 4.62 0 7 0 C7 13.53 7 27.06 7 41 C4.69 41 2.38 41 0 41 C0 27.47 0 13.94 0 0 Z " fill="#FDC801" transform="translate(730,538)"/>
<path d="M0 0 C0.66 0 1.32 0 2 0 C3.98 5.28 5.96 10.56 8 16 C8.33 15.01 8.66 14.02 9 13 C11.99739756 14.74042439 12.88530089 15.60674592 13.875 19 C14 22 14 22 12 25 C11.34 24.01 10.68 23.02 10 22 C7.97723319 21.49378487 7.97723319 21.49378487 5.6484375 21.48828125 C4.79765625 21.45283203 3.946875 21.41738281 3.0703125 21.38085938 C2.18085937 21.35830078 1.29140625 21.33574219 0.375 21.3125 C-0.97078125 21.26125977 -0.97078125 21.26125977 -2.34375 21.20898438 C-4.56237538 21.12637598 -6.7805994 21.05727281 -9 21 C-9.66 23.31 -10.32 25.62 -11 28 C-12.32 27.67 -13.64 27.34 -15 27 C-13.68 23.7 -12.36 20.4 -11 17 C-10.34 17 -9.68 17 -9 17 C-8.34 14.69 -7.68 12.38 -7 10 C-6.67 10 -6.34 10 -6 10 C-6 11.98 -6 13.96 -6 16 C-4.02 10.72 -2.04 5.44 0 0 Z " fill="#FAB601" transform="translate(673,546)"/>
<path d="M0 0 C1.65 0 3.3 0 5 0 C6.87428786 2.3361553 8.32638858 4.43825053 9.8125 7 C10.21919922 7.66773438 10.62589844 8.33546875 11.04492188 9.0234375 C12.04616957 10.67255135 13.02525841 12.3350819 14 14 C14.33 9.38 14.66 4.76 15 0 C16.32 0 17.64 0 19 0 C19 7.92 19 15.84 19 24 C14.5 22.875 14.5 22.875 12.421875 19.62109375 C11.98359375 18.94755859 11.5453125 18.27402344 11.09375 17.58007812 C10.42859375 16.51950195 10.42859375 16.51950195 9.75 15.4375 C9.29109375 14.72658203 8.8321875 14.01566406 8.359375 13.28320312 C7.22906503 11.52886786 6.11312897 9.76528659 5 8 C4.67 13.28 4.34 18.56 4 24 C2.68 24 1.36 24 0 24 C0 16.08 0 8.16 0 0 Z " fill="#E9EAE9" transform="translate(670,655)"/>
<path d="M0 0 C0.680625 0.07863281 1.36125 0.15726563 2.0625 0.23828125 C4 0.6875 4 0.6875 7 2.6875 C6.67 3.6775 6.34 4.6675 6 5.6875 C5.32453125 5.56890625 4.6490625 5.4503125 3.953125 5.328125 C-1.52926691 4.42405609 -1.52926691 4.42405609 -6.625 6.125 C-8.67301802 9.94176085 -8.47964693 12.3706776 -8 16.6875 C-7.16666667 18.85416667 -7.16666667 18.85416667 -5 19.6875 C-2.28114681 19.91809307 0.25991592 19.82225823 3 19.6875 C3.33 18.0375 3.66 16.3875 4 14.6875 C2.35 14.6875 0.7 14.6875 -1 14.6875 C-1 13.6975 -1 12.7075 -1 11.6875 C1.97 11.6875 4.94 11.6875 8 11.6875 C8.37026699 20.20364078 8.37026699 20.20364078 6.67578125 22.41796875 C3.04486725 25.16866118 -0.61941668 24.98960919 -5 24.6875 C-9.14798495 22.89632468 -11.2414131 20.85257424 -13 16.6875 C-13.59904953 12.64186413 -13.42616603 9.60071293 -11.6875 5.875 C-8.25789348 1.42921377 -5.86128891 -0.74376204 0 0 Z " fill="#EFEFEE" transform="translate(631,654.3125)"/>
<path d="M0 0 C4.95 0 9.9 0 15 0 C15 1.32 15 2.64 15 4 C11.37 4 7.74 4 4 4 C4 5.98 4 7.96 4 10 C6.97 10 9.94 10 13 10 C13 11.32 13 12.64 13 14 C10.03 14 7.06 14 4 14 C4 15.98 4 17.96 4 20 C7.96 20 11.92 20 16 20 C16 21.32 16 22.64 16 24 C10.72 24 5.44 24 0 24 C0 16.08 0 8.16 0 0 Z " fill="#E1E2E1" transform="translate(653,611)"/>
<path d="M0 0 C4.95 0 9.9 0 15 0 C15 1.32 15 2.64 15 4 C11.37 4 7.74 4 4 4 C4 5.98 4 7.96 4 10 C6.64 10 9.28 10 12 10 C12 11.32 12 12.64 12 14 C9.36 14 6.72 14 4 14 C4 15.98 4 17.96 4 20 C7.96 20 11.92 20 16 20 C16 21.32 16 22.64 16 24 C10.72 24 5.44 24 0 24 C0 16.08 0 8.16 0 0 Z " fill="#E5E5E4" transform="translate(817,611)"/>
<path d="M0 0 C5 1 5 1 6.39379883 2.39868164 C6.74466553 2.97996826 7.09553223 3.56125488 7.45703125 4.16015625 C7.84697266 4.78857422 8.23691406 5.41699219 8.63867188 6.06445312 C9.2197168 7.05348633 9.2197168 7.05348633 9.8125 8.0625 C10.21919922 8.72572266 10.62589844 9.38894531 11.04492188 10.07226562 C12.04412578 11.7062579 13.02398816 13.35204973 14 15 C14.33 10.05 14.66 5.1 15 0 C15.99 0 16.98 0 18 0 C18 7.59 18 15.18 18 23 C16.68 23 15.36 23 14 23 C12.62792969 21.53125 12.62792969 21.53125 11.421875 19.5 C10.98359375 18.778125 10.5453125 18.05625 10.09375 17.3125 C9.6503125 16.549375 9.206875 15.78625 8.75 15 C8.29109375 14.236875 7.8321875 13.47375 7.359375 12.6875 C6.22653556 10.79943427 5.11155505 8.90067429 4 7 C3.67 12.28 3.34 17.56 3 23 C2.01 23 1.02 23 0 23 C0 15.41 0 7.82 0 0 Z " fill="#F7F7F7" transform="translate(488,655)"/>
<path d="M0 0 C1.32 0 2.64 0 4 0 C4 3.3 4 6.6 4 10 C7.63 10 11.26 10 15 10 C15 6.7 15 3.4 15 0 C15.99 0 16.98 0 18 0 C18 7.92 18 15.84 18 24 C17.01 24 16.02 24 15 24 C15 20.7 15 17.4 15 14 C11.37 14 7.74 14 4 14 C4 17.3 4 20.6 4 24 C2.68 24 1.36 24 0 24 C0 16.08 0 8.16 0 0 Z " fill="#F5F5F5" transform="translate(626,611)"/>
<path d="M0 0 C1.32 0 2.64 0 4 0 C4.04898438 1.27617188 4.09796875 2.55234375 4.1484375 3.8671875 C4.22346191 5.53648072 4.29900988 7.20575046 4.375 8.875 C4.4059375 9.71675781 4.436875 10.55851563 4.46875 11.42578125 C4.50742187 12.23144531 4.54609375 13.03710938 4.5859375 13.8671875 C4.6173584 14.61081543 4.6487793 15.35444336 4.68115234 16.12060547 C4.85419551 18.24010974 4.85419551 18.24010974 7 20 C10.06991681 19.83557723 10.06991681 19.83557723 13 19 C14.6498007 15.70039859 14.38258361 12.00872116 14.5625 8.375 C14.60568359 7.57320312 14.64886719 6.77140625 14.69335938 5.9453125 C14.79951457 3.9637489 14.90026855 1.98189729 15 0 C16.32 0 17.64 0 19 0 C19.08126109 2.72977064 19.14061663 5.4571017 19.1875 8.1875 C19.21263672 8.95642578 19.23777344 9.72535156 19.26367188 10.51757812 C19.32417858 15.21693236 18.99353408 18.15117047 16 22 C13.60713116 24.39286884 12.90552906 24.32050616 9.625 24.375 C6.24692628 24.30982816 5.28463276 24.21347457 2.5 22.125 C0.37492525 19.11447744 -0.12324409 17.50066101 -0.09765625 13.8671875 C-0.09443359 13.06152344 -0.09121094 12.25585938 -0.08789062 11.42578125 C-0.07951172 10.58402344 -0.07113281 9.74226562 -0.0625 8.875 C-0.05798828 8.02550781 -0.05347656 7.17601562 -0.04882812 6.30078125 C-0.03702874 4.20049091 -0.01909306 2.1002367 0 0 Z " fill="#E9E9E8" transform="translate(712,611)"/>
<path d="M0 0 C1.32 0 2.64 0 4 0 C4.04898438 1.27617188 4.09796875 2.55234375 4.1484375 3.8671875 C4.22346191 5.53648072 4.29900988 7.20575046 4.375 8.875 C4.4059375 9.71675781 4.436875 10.55851563 4.46875 11.42578125 C4.50742187 12.23144531 4.54609375 13.03710938 4.5859375 13.8671875 C4.6173584 14.61081543 4.6487793 15.35444336 4.68115234 16.12060547 C4.85419551 18.24010974 4.85419551 18.24010974 7 20 C9.5 20.41666667 9.5 20.41666667 12 20 C13.9756562 17.03651571 14.26376859 16.31979627 14.4140625 12.98828125 C14.47207031 11.85229492 14.47207031 11.85229492 14.53125 10.69335938 C14.57765625 9.51483398 14.57765625 9.51483398 14.625 8.3125 C14.68300781 7.11657227 14.68300781 7.11657227 14.7421875 5.89648438 C14.83632494 3.93136525 14.91924632 1.9657146 15 0 C16.32 0 17.64 0 19 0 C19.08126109 2.72977064 19.14061663 5.4571017 19.1875 8.1875 C19.21263672 8.95642578 19.23777344 9.72535156 19.26367188 10.51757812 C19.32417858 15.21693236 18.99353408 18.15117047 16 22 C13.60713116 24.39286884 12.90552906 24.32050616 9.625 24.375 C6.24692628 24.30982816 5.28463276 24.21347457 2.5 22.125 C0.37492525 19.11447744 -0.12324409 17.50066101 -0.09765625 13.8671875 C-0.09443359 13.06152344 -0.09121094 12.25585938 -0.08789062 11.42578125 C-0.07951172 10.58402344 -0.07113281 9.74226562 -0.0625 8.875 C-0.05798828 8.02550781 -0.05347656 7.17601562 -0.04882812 6.30078125 C-0.03702874 4.20049091 -0.01909306 2.1002367 0 0 Z " fill="#F1F1F0" transform="translate(763,611)"/>
<path d="M0 0 C1.32 0 2.64 0 4 0 C4.04898437 1.27617188 4.09796875 2.55234375 4.1484375 3.8671875 C4.22346191 5.53648072 4.29900988 7.20575046 4.375 8.875 C4.4059375 9.71675781 4.436875 10.55851563 4.46875 11.42578125 C4.50742187 12.23144531 4.54609375 13.03710938 4.5859375 13.8671875 C4.6173584 14.61081543 4.6487793 15.35444336 4.68115234 16.12060547 C4.85419551 18.24010974 4.85419551 18.24010974 7 20 C10.82564665 19.81242938 10.82564665 19.81242938 14 18 C14.15582303 16.65984779 14.25044142 15.31241097 14.31640625 13.96484375 C14.35830078 13.15595703 14.40019531 12.34707031 14.44335938 11.51367188 C14.50233398 10.2384668 14.50233398 10.2384668 14.5625 8.9375 C14.60568359 8.08349609 14.64886719 7.22949219 14.69335938 6.34960938 C14.79976702 4.23327963 14.90041731 2.11666187 15 0 C16.32 0 17.64 0 19 0 C19.08126109 2.72977064 19.14061663 5.4571017 19.1875 8.1875 C19.21263672 8.95642578 19.23777344 9.72535156 19.26367188 10.51757812 C19.32417858 15.21693236 18.99353408 18.15117047 16 22 C13.60713116 24.39286884 12.90552906 24.32050616 9.625 24.375 C6.24692628 24.30982816 5.28463276 24.21347457 2.5 22.125 C0.37492525 19.11447744 -0.12324409 17.50066101 -0.09765625 13.8671875 C-0.09443359 13.06152344 -0.09121094 12.25585938 -0.08789062 11.42578125 C-0.07951172 10.58402344 -0.07113281 9.74226562 -0.0625 8.875 C-0.05798828 8.02550781 -0.05347656 7.17601562 -0.04882812 6.30078125 C-0.03702874 4.20049091 -0.01909306 2.1002367 0 0 Z " fill="#F3F4F3" transform="translate(500,611)"/>
<path d="M0 0 C4.62 0 9.24 0 14 0 C14 0.99 14 1.98 14 3 C10.7 3 7.4 3 4 3 C4 5.31 4 7.62 4 10 C6.64 10 9.28 10 12 10 C12 10.99 12 11.98 12 13 C9.36 13 6.72 13 4 13 C4 15.31 4 17.62 4 20 C7.96 20 11.92 20 16 20 C16 21.32 16 22.64 16 24 C10.72 24 5.44 24 0 24 C0 16.08 0 8.16 0 0 Z " fill="#EDEEED" transform="translate(647,655)"/>
<path d="M0 0 C4.62 0 9.24 0 14 0 C14 1.32 14 2.64 14 4 C10.37 4 6.74 4 3 4 C3 5.98 3 7.96 3 10 C5.97 10 8.94 10 12 10 C12 10.99 12 11.98 12 13 C9.03 13 6.06 13 3 13 C3 15.31 3 17.62 3 20 C6.96 20 10.92 20 15 20 C15 21.32 15 22.64 15 24 C10.05 24 5.1 24 0 24 C0 16.08 0 8.16 0 0 Z " fill="#EEEEED" transform="translate(540,655)"/>
<path d="M0 0 C8 0 8 0 11 2.125 C13 5 13 5 13.5625 8 C12.83450185 11.88265681 12.06018871 13.46228253 9 16 C5.87799007 16.42450737 3.1744519 16.23341558 0 16 C0 10.72 0 5.44 0 0 Z " fill="#080807" transform="translate(566,615)"/>
<path d="M0 0 C10.56 0 21.12 0 32 0 C32 1.98 32 3.96 32 6 C27.71 6 23.42 6 19 6 C19 17.55 19 29.1 19 41 C17.02 41 15.04 41 13 41 C13 29.45 13 17.9 13 6 C13.33 6 13.66 6 14 6 C14 17.22 14 28.44 14 40 C15.32 40 16.64 40 18 40 C18 28.45 18 16.9 18 5 C18.66 5 19.32 5 20 5 C20 4.01 20 3.02 20 2 C13.73 1.67 7.46 1.34 1 1 C1 2.32 1 3.64 1 5 C4.63 5 8.26 5 12 5 C12 5.33 12 5.66 12 6 C8.04 6 4.08 6 0 6 C0 4.02 0 2.04 0 0 Z " fill="#FBDE01" transform="translate(692,538)"/>
<path d="M0 0 C6.6 0 13.2 0 20 0 C20 1.32 20 2.64 20 4 C17.36 4 14.72 4 12 4 C12 10.6 12 17.2 12 24 C10.68 24 9.36 24 8 24 C8 17.4 8 10.8 8 4 C5.36 4 2.72 4 0 4 C0 2.68 0 1.36 0 0 Z " fill="#E6E6E5" transform="translate(599,611)"/>
<path d="M0 0 C6.27 0 12.54 0 19 0 C19 1.32 19 2.64 19 4 C16.69 4 14.38 4 12 4 C12 10.6 12 17.2 12 24 C10.68 24 9.36 24 8 24 C8 17.4 8 10.8 8 4 C5.36 4 2.72 4 0 4 C0 2.68 0 1.36 0 0 Z " fill="#ECEDEC" transform="translate(513,655)"/>
<path d="M0 0 C6.27 0 12.54 0 19 0 C19 1.32 19 2.64 19 4 C16.69 4 14.38 4 12 4 C12 10.6 12 17.2 12 24 C10.68 24 9.36 24 8 24 C8 17.4 8 10.8 8 4 C5.36 4 2.72 4 0 4 C0 2.68 0 1.36 0 0 Z " fill="#E3E3E3" transform="translate(737,611)"/>
<path d="M0 0 C4.95 0 9.9 0 15 0 C15 0.99 15 1.98 15 3 C11.37 3 7.74 3 4 3 C4 5.31 4 7.62 4 10 C6.97 10 9.94 10 13 10 C13 10.99 13 11.98 13 13 C10.03 13 7.06 13 4 13 C4 16.3 4 19.6 4 23 C2.68 23 1.36 23 0 23 C0 15.41 0 7.82 0 0 Z " fill="#F7F7F7" transform="translate(689,612)"/>
<path d="M0 0 C2.25 0.125 2.25 0.125 5 1 C9 5.97297297 9 5.97297297 9 10 C9.66 10 10.32 10 11 10 C11.268125 9.278125 11.53625 8.55625 11.8125 7.8125 C13.01531675 4.96372348 14.15327038 2.48598219 16 0 C17.32 0 18.64 0 20 0 C18.87387279 3.27600644 17.4281214 5.82892486 15.4375 8.625 C12.28297404 13.46812516 12.11447034 18.33892138 12 24 C10.68 24 9.36 24 8 24 C8.00902344 23.26136719 8.01804687 22.52273438 8.02734375 21.76171875 C7.7720457 13.02608562 5.02513857 7.99320851 0 1 C0 0.67 0 0.34 0 0 Z " fill="#E8E8E7" transform="translate(738,655)"/>
<path d="M0 0 C1.32 0 2.64 0 4 0 C4 6.6 4 13.2 4 20 C7.63 20 11.26 20 15 20 C15 21.32 15 22.64 15 24 C10.05 24 5.1 24 0 24 C0 16.08 0 8.16 0 0 Z " fill="#E4E4E4" transform="translate(563,655)"/>
<path d="M0 0 C1.32 0 2.64 0 4 0 C4 6.6 4 13.2 4 20 C7.63 20 11.26 20 15 20 C15 21.32 15 22.64 15 24 C10.05 24 5.1 24 0 24 C0 16.08 0 8.16 0 0 Z " fill="#F0F0EF" transform="translate(541,611)"/>
<path d="M0 0 C2.64 0 5.28 0 8 0 C8.66 1.65 9.32 3.3 10 5 C9.01 4.34 8.02 3.68 7 3 C5.35 2.67 3.7 2.34 2 2 C2 14.54 2 27.08 2 40 C3.32 40 4.64 40 6 40 C6 30.76 6 21.52 6 12 C6.33 12 6.66 12 7 12 C7 21.57 7 31.14 7 41 C4.69 41 2.38 41 0 41 C0 27.47 0 13.94 0 0 Z " fill="#F5CF01" transform="translate(534,538)"/>
<path d="M0 0 C6.27 0 12.54 0 19 0 C19 0.99 19 1.98 19 3 C16.36 3 13.72 3 11 3 C11 9.93 11 16.86 11 24 C10.01 24 9.02 24 8 24 C8 17.4 8 10.8 8 4 C5.36 4 2.72 4 0 4 C0 2.68 0 1.36 0 0 Z " fill="#F4F4F4" transform="translate(696,655)"/>
<path d="M0 0 C0.66 0 1.32 0 2 0 C3.98 5.61 5.96 11.22 8 17 C3.38 17 -1.24 17 -6 17 C-4.02 11.39 -2.04 5.78 0 0 Z " fill="#0E0A05" transform="translate(673,546)"/>
<path d="M0 0 C7.26 0 14.52 0 22 0 C21.01 0.33 20.02 0.66 19 1 C19 1.99 19 2.98 19 4 C16.625 5.0625 16.625 5.0625 14 6 C13.34 5.67 12.68 5.34 12 5 C12 16.55 12 28.1 12 40 C11.67 40 11.34 40 11 40 C11 28.12 11 16.24 11 4 C7.37 4 3.74 4 0 4 C0 2.68 0 1.36 0 0 Z " fill="#DFA201" transform="translate(693,539)"/>
<path d="M0 0 C0.99 0 1.98 0 3 0 C3 6.6 3 13.2 3 20 C6.63 20 10.26 20 14 20 C14 21.32 14 22.64 14 24 C9.38 24 4.76 24 0 24 C0 16.08 0 8.16 0 0 Z " fill="#FDFEFD" transform="translate(722,655)"/>
<path d="M0 0 C4.28879579 3.78913026 7.14703458 8.49904816 10.25 13.25 C10.80429687 14.09046875 11.35859375 14.9309375 11.9296875 15.796875 C13.29069425 17.86185075 14.64729288 19.92958185 16 22 C15.67 22.66 15.34 23.32 15 24 C14.44570313 23.14535156 13.89140625 22.29070313 13.3203125 21.41015625 C12.58878657 20.29411027 11.85700229 19.1782336 11.125 18.0625 C10.40570312 16.96035156 9.68640625 15.85820313 8.9453125 14.72265625 C7.28216717 11.94618034 7.28216717 11.94618034 5 11 C5.55115081 15.57031207 7.38143568 18.52693639 9.9375 22.3125 C10.64777344 23.38113281 11.35804688 24.44976563 12.08984375 25.55078125 C12.72019531 26.35902344 13.35054687 27.16726563 14 28 C14.66 28 15.32 28 16 28 C16.33 29.98 16.66 31.96 17 34 C12.07659541 29.57728063 8.74055516 24.3619206 5.1875 18.8125 C4.59001953 17.89791016 3.99253906 16.98332031 3.37695312 16.04101562 C-1 9.26299107 -1 9.26299107 -1 7 C0.32 7 1.64 7 3 7 C2.505 6.21625 2.01 5.4325 1.5 4.625 C0 2 0 2 0 0 Z " fill="#F4CE02" transform="translate(544,543)"/>
<path d="M0 0 C12.86206897 0 12.86206897 0 17 3 C18.875 5.6875 18.875 5.6875 20 8 C18.25 8.75 18.25 8.75 16 9 C15.4225 8.360625 14.845 7.72125 14.25 7.0625 C11.71322112 4.73711936 11.16147342 4.69936452 7.875 4.6875 C4.20805427 4.74019429 4.20805427 4.74019429 2 6 C1.67 11.94 1.34 17.88 1 24 C0.67 24 0.34 24 0 24 C0 16.08 0 8.16 0 0 Z " fill="#D5D5D4" transform="translate(562,611)"/>
<path d="M0 0 C0.99 0 1.98 0 3 0 C3 6.6 3 13.2 3 20 C6.63 20 10.26 20 14 20 C14 20.99 14 21.98 14 23 C9.38 23 4.76 23 0 23 C0 15.41 0 7.82 0 0 Z " fill="#FCFCFC" transform="translate(585,655)"/>
<path d="M0 0 C4.20205951 1.50310824 6.0144913 4.50308331 8.328125 8.1015625 C8.72199402 8.69802582 9.11586304 9.29448914 9.52166748 9.9090271 C10.7732545 11.80873408 12.01170769 13.71660696 13.25 15.625 C14.09810498 16.91722713 14.94705406 18.2089007 15.796875 19.5 C17.87441977 22.66033514 19.94022944 25.82805462 22 29 C21.01 29.33 20.02 29.66 19 30 C18.66226563 29.36191406 18.32453125 28.72382812 17.9765625 28.06640625 C17.53054688 27.24011719 17.08453125 26.41382813 16.625 25.5625 C16.18414063 24.73878906 15.74328125 23.91507813 15.2890625 23.06640625 C14.16581441 20.86533422 14.16581441 20.86533422 12 20 C12.45699278 25.02692063 14.99241748 28.14896261 18 32 C17.01 32.495 17.01 32.495 16 33 C14.34698491 30.58797799 12.70250054 28.17084663 11.0625 25.75 C10.59392578 25.06808594 10.12535156 24.38617187 9.64257812 23.68359375 C9.19462891 23.01972656 8.74667969 22.35585938 8.28515625 21.671875 C7.87144775 21.0644043 7.45773926 20.45693359 7.03149414 19.83105469 C5.94282942 17.89851376 5.43694263 16.16589742 5 14 C7.475 14.99 7.475 14.99 10 16 C8.8989859 14.08152063 7.79405904 12.16528646 6.6875 10.25 C6.07261719 9.18265625 5.45773437 8.1153125 4.82421875 7.015625 C3.32904649 4.54394837 1.78623484 2.26439616 0 0 Z " fill="#F4CF02" transform="translate(796,538)"/>
<path d="M0 0 C1.32 0 2.64 0 4 0 C4 7.92 4 15.84 4 24 C2.68 24 1.36 24 0 24 C0 16.08 0 8.16 0 0 Z " fill="#E9E9E9" transform="translate(606,655)"/>
<path d="M0 0 C1.32 0 2.64 0 4 0 C4 11.55 4 23.1 4 35 C3.67 35 3.34 35 3 35 C2.67 29.72 2.34 24.44 2 19 C1.34 20.32 0.68 21.64 0 23 C0 15.41 0 7.82 0 0 Z " fill="#F9B001" transform="translate(519,539)"/>
<path d="M0 0 C0.66 0.33 1.32 0.66 2 1 C4.33273992 7.99821975 2.92761327 14.42857623 0 21 C-2.67955098 25.25032225 -5.24019043 27.35570215 -10 29 C-13.68195487 29.23361369 -17.31656668 29.1769621 -21 29 C-21 28.67 -21 28.34 -21 28 C-17.7 27.67 -14.4 27.34 -11 27 C-10.566875 25.88625 -10.566875 25.88625 -10.125 24.75 C-7.45714286 18.22857143 -7.45714286 18.22857143 -5 17 C-5 17.99 -5 18.98 -5 20 C-4.01 20 -3.02 20 -2 20 C0.1103435 15.72115394 0.24128739 11.86135858 0.125 7.1875 C0.11597656 6.49462891 0.10695313 5.80175781 0.09765625 5.08789062 C0.07426157 3.39177605 0.03839641 1.69584129 0 0 Z " fill="#F3CD02" transform="translate(781,550)"/>
<path d="M0 0 C4.29 0.33 8.58 0.66 13 1 C13 1.33 13 1.66 13 2 C9.37 2 5.74 2 2 2 C2 13.22 2 24.44 2 36 C1.34 36 0.68 36 0 36 C0 24.12 0 12.24 0 0 Z " fill="#160D07" transform="translate(711,544)"/>
<path d="M0 0 C2.0625 0.4375 2.0625 0.4375 4 1 C3.01 1 2.02 1 1 1 C1 8.92 1 16.84 1 25 C5.62 25 10.24 25 15 25 C13 27 13 27 9.7421875 27.1953125 C8.46601562 27.17210937 7.18984375 27.14890625 5.875 27.125 C3.95300781 27.09792969 3.95300781 27.09792969 1.9921875 27.0703125 C0.51105469 27.03550781 0.51105469 27.03550781 -1 27 C-1.02886537 22.68751391 -1.04675255 18.37505238 -1.0625 14.0625 C-1.07087891 12.83080078 -1.07925781 11.59910156 -1.08789062 10.33007812 C-1.09111328 9.16025391 -1.09433594 7.99042969 -1.09765625 6.78515625 C-1.10289307 5.70113525 -1.10812988 4.61711426 -1.11352539 3.50024414 C-1 1 -1 1 0 0 Z " fill="#363634" transform="translate(584,653)"/>
<path d="M0 0 C4.27918305 0.48778252 6.0561342 1.59618578 8.8125 4.875 C9.41707031 5.57367187 10.02164063 6.27234375 10.64453125 6.9921875 C12 9 12 9 12 12 C10.35 11.67 8.7 11.34 7 11 C7.33 11.99 7.66 12.98 8 14 C8.0685495 15.89470816 8.08480372 17.7916834 8.0625 19.6875 C8.05347656 20.68136719 8.04445313 21.67523437 8.03515625 22.69921875 C8.02355469 23.45847656 8.01195312 24.21773437 8 25 C7.34 25.33 6.68 25.66 6 26 C6.03480469 25.27554688 6.06960938 24.55109375 6.10546875 23.8046875 C6.3267366 15.90226428 5.02175159 11.21740673 0 5 C1.32 5 2.64 5 4 5 C4 4.34 4 3.68 4 3 C2.0399719 1.36323743 2.0399719 1.36323743 0 0 Z " fill="#FAD002" transform="translate(602,539)"/>
<path d="M0 0 C7.39954511 -0.36391205 7.39954511 -0.36391205 10.0625 1.25 C11 3 11 3 10.8125 5.125 C10 7 10 7 8 8 C5.3276379 8.13415472 2.67749512 8.04318541 0 8 C0 5.36 0 2.72 0 0 Z " fill="#1C1C1B" transform="translate(478,624)"/>
<path d="M0 0 C0.51949219 0.27714844 1.03898438 0.55429687 1.57421875 0.83984375 C5.36216005 2.80733267 8.70699113 4.46337389 13 5 C13 5.33 13 5.66 13 6 C10.69 6.33 8.38 6.66 6 7 C6 7.33 6 7.66 6 8 C7.74991334 8.02715383 9.49994945 8.04646551 11.25 8.0625 C12.22453125 8.07410156 13.1990625 8.08570313 14.203125 8.09765625 C16.65758678 8.01195577 18.66168914 7.70706066 21 7 C19.92578125 8.47265625 19.92578125 8.47265625 18 10 C12.23955278 10.79429769 5.25054299 11.4383149 0.1875 8.125 C-2 6 -2 6 -3 4 C-2.01 2.68 -1.02 1.36 0 0 Z " fill="#F8D603" transform="translate(835,569)"/>
<path d="M0 0 C0.99 0 1.98 0 3 0 C3 7.92 3 15.84 3 24 C2.01 24 1.02 24 0 24 C0 16.08 0 8.16 0 0 Z " fill="#F9F9F9" transform="translate(475,655)"/>
<path d="M0 0 C0.99 0 1.98 0 3 0 C3 7.92 3 15.84 3 24 C2.01 24 1.02 24 0 24 C0 16.08 0 8.16 0 0 Z " fill="#FCFCFB" transform="translate(528,611)"/>
<path d="M0 0 C1.45792884 -0.05399736 2.91642712 -0.09279177 4.375 -0.125 C5.18710937 -0.14820313 5.99921875 -0.17140625 6.8359375 -0.1953125 C9 0 9 0 11 2 C10.46428571 5.53571429 10.46428571 5.53571429 9 7 C7.48071962 7.07179964 5.95832518 7.08392007 4.4375 7.0625 C3.61121094 7.05347656 2.78492188 7.04445313 1.93359375 7.03515625 C1.29550781 7.02355469 0.65742187 7.01195312 0 7 C0 4.69 0 2.38 0 0 Z " fill="#050504" transform="translate(794,615)"/>
<path d="M0 0 C0.33 0 0.66 0 1 0 C1 7.59 1 15.18 1 23 C1.99 23 2.98 23 4 23 C4 17.39 4 11.78 4 6 C6.8290723 8.8290723 7.37611108 9.38144425 8 13 C7.67 13 7.34 13 7 13 C6.67 16.96 6.34 20.92 6 25 C4.02 24.67 2.04 24.34 0 24 C0 16.08 0 8.16 0 0 Z " fill="#2C2D2C" transform="translate(487,655)"/>
<path d="M0 0 C1.65 0 3.3 0 5 0 C5.69906942 1.59915881 6.38389468 3.20455045 7.0625 4.8125 C7.44535156 5.70582031 7.82820312 6.59914063 8.22265625 7.51953125 C9 10 9 10 8 13 C7.01 13 6.02 13 5 13 C4.67 11.02 4.34 9.04 4 7 C2.68 7.33 1.36 7.66 0 8 C-0.66 7.01 -1.32 6.02 -2 5 C-1.34 4.01 -0.68 3.02 0 2 C0 1.34 0 0.68 0 0 Z " fill="#F7B901" transform="translate(671,539)"/>
<path d="M0 0 C1.32 0 2.64 0 4 0 C4 5.61 4 11.22 4 17 C2.68 17.33 1.36 17.66 0 18 C0 12.06 0 6.12 0 0 Z " fill="#EAEAE9" transform="translate(778,611)"/>
<path d="M0 0 C1.32 0 2.64 0 4 0 C4.05389087 1.95803507 4.09274217 3.91648909 4.125 5.875 C4.14820313 6.96554687 4.17140625 8.05609375 4.1953125 9.1796875 C4 12 4 12 2 14 C1.53709779 16.66242821 1.53709779 16.66242821 1.375 19.625 C1.30023437 20.62789062 1.22546875 21.63078125 1.1484375 22.6640625 C1.09945312 23.43492187 1.05046875 24.20578125 1 25 C0.67 25 0.34 25 0 25 C0 16.75 0 8.5 0 0 Z " fill="#FBB301" transform="translate(819,539)"/>
<path d="M0 0 C1.32 0 2.64 0 4 0 C6.23413013 3.35119519 6.23847762 4.4177755 6.1953125 8.32421875 C6.18886719 9.35224609 6.18242187 10.38027344 6.17578125 11.43945312 C6.15902344 12.51130859 6.14226562 13.58316406 6.125 14.6875 C6.11597656 15.77095703 6.10695313 16.85441406 6.09765625 17.97070312 C6.0740734 20.6473571 6.04116126 23.32356797 6 26 C4.02 26.33 2.04 26.66 0 27 C0.99 26.67 1.98 26.34 3 26 C3 18.41 3 10.82 3 3 C2.01 2.67 1.02 2.34 0 2 C0 1.34 0 0.68 0 0 Z " fill="#414241" transform="translate(503,652)"/>
<path d="M0 0 C1 2 1 2 0.44140625 3.9453125 C0.15136719 4.66460938 -0.13867188 5.38390625 -0.4375 6.125 C-0.72496094 6.84945312 -1.01242187 7.57390625 -1.30859375 8.3203125 C-1.53675781 8.87460937 -1.76492188 9.42890625 -2 10 C-1.01 10 -0.02 10 1 10 C1.99 7.69 2.98 5.38 4 3 C5.32830615 6.98491845 4.23204404 8.40048548 2.5625 12.1875 C1.85287109 13.81751953 1.85287109 13.81751953 1.12890625 15.48046875 C0.75636719 16.31191406 0.38382813 17.14335938 0 18 C-0.309375 17.360625 -0.61875 16.72125 -0.9375 16.0625 C-1.8345163 14.06389179 -1.8345163 14.06389179 -3 13 C-3.66 14.65 -4.32 16.3 -5 18 C-6.31983695 14.04048916 -5.03971894 11.59992488 -3.625 7.875 C-3.39039063 7.22917969 -3.15578125 6.58335937 -2.9140625 5.91796875 C-1.15762562 1.15762562 -1.15762562 1.15762562 0 0 Z " fill="#F3D002" transform="translate(646,547)"/>
<path d="M0 0 C0.86625 0.7115625 0.86625 0.7115625 1.75 1.4375 C3.84682179 3.09418867 3.84682179 3.09418867 6.0625 3.5 C8.47588965 4.12281023 9.29404089 5.22295926 11 7 C12.32027855 7.69216095 13.65261856 8.36220264 15 9 C11.64206941 9.65854561 8.42698335 10.13120151 5 10 C1.79190535 7.59392901 0.21113952 5.31670929 -2 2 C-1.34 1.34 -0.68 0.68 0 0 Z " fill="#F8B301" transform="translate(584,569)"/>
<path d="M0 0 C2 1 2 1 4 3 C4.99 3.33 5.98 3.66 7 4 C6.38125 4.598125 5.7625 5.19625 5.125 5.8125 C2.86323046 8.00811144 2.86323046 8.00811144 1 11 C0.67 8.69 0.34 6.38 0 4 C-2.20374763 5.76906522 -2.20374763 5.76906522 -2.15234375 8.0234375 C-1.69418814 13.3729129 -1.69418814 13.3729129 1.5625 17.5625 C2.366875 18.036875 3.17125 18.51125 4 19 C1.15190074 18.69209738 -0.58286148 18.34521809 -2.8125 16.5 C-4.61742671 12.7001543 -4.69773208 9.12763609 -4 5 C-2 1.9375 -2 1.9375 0 0 Z " fill="#F7D701" transform="translate(837,540)"/>
<path d="M0 0 C0.66 1.32 1.32 2.64 2 4 C1 5 1 5 -1.28515625 5.09765625 C-2.65994141 5.08025391 -2.65994141 5.08025391 -4.0625 5.0625 C-4.98160156 5.05347656 -5.90070312 5.04445313 -6.84765625 5.03515625 C-7.55792969 5.02355469 -8.26820313 5.01195312 -9 5 C-9 5.99 -9 6.98 -9 8 C-6.03 8 -3.06 8 0 8 C-0.33 9.32 -0.66 10.64 -1 12 C-1.33 11.34 -1.66 10.68 -2 10 C-4.64 10 -7.28 10 -10 10 C-10 7.69 -10 5.38 -10 3 C-6.7 3 -3.4 3 0 3 C0 2.01 0 1.02 0 0 Z " fill="#2B2B2A" transform="translate(661,655)"/>
<path d="M0 0 C2.64 0 5.28 0 8 0 C8.38218767 1.65614657 8.71395102 3.32457024 9 5 C8 6 8 6 6.15234375 6.09765625 C4.1015625 6.06510417 2.05078125 6.03255208 0 6 C0 4.02 0 2.04 0 0 Z " fill="#0A0A0A" transform="translate(478,615)"/>
<path d="M0 0 C1.32 0 2.64 0 4 0 C2.43358249 4.30764815 0.31663844 8.06171464 -2 12 C-3.32 11.34 -4.64 10.68 -6 10 C-5.10177882 8.32332046 -4.18078439 6.65882367 -3.25 5 C-2.73953125 4.071875 -2.2290625 3.14375 -1.703125 2.1875 C-0.86007812 1.1046875 -0.86007812 1.1046875 0 0 Z " fill="#F2F3F2" transform="translate(754,655)"/>
<path d="M0 0 C0.99 0.66 1.98 1.32 3 2 C2.525625 2.45375 2.05125 2.9075 1.5625 3.375 C-0.09027808 4.93258204 -0.09027808 4.93258204 -1 7 C-2.60379341 7.05416188 -4.20811406 7.09286638 -5.8125 7.125 C-6.70582031 7.14820313 -7.59914063 7.17140625 -8.51953125 7.1953125 C-11 7 -11 7 -14 5 C-13.67 4.34 -13.34 3.68 -13 3 C-11.96939453 3.05220703 -11.96939453 3.05220703 -10.91796875 3.10546875 C-10.01691406 3.13253906 -9.11585938 3.15960937 -8.1875 3.1875 C-7.29417969 3.22230469 -6.40085937 3.25710938 -5.48046875 3.29296875 C-2.58352485 2.95081002 -1.77444972 2.24606427 0 0 Z " fill="#F7B401" transform="translate(771,571)"/>
<path d="M0 0 C2.64 0 5.28 0 8 0 C8.33 0.99 8.66 1.98 9 3 C7.02 3 5.04 3 3 3 C3 6.96 3 10.92 3 15 C2.01 15 1.02 15 0 15 C0 10.05 0 5.1 0 0 Z " fill="#1C1D1B" transform="translate(566,615)"/>
<path d="M0 0 C5.94 0 11.88 0 18 0 C18 1.98 18 3.96 18 6 C17.34 6 16.68 6 16 6 C16 4.68 16 3.36 16 2 C11.05 2 6.1 2 1 2 C0.67 1.34 0.34 0.68 0 0 Z M13 6 C16 7 16 7 16 7 Z " fill="#333332" transform="translate(688,610)"/>
<path d="M0 0 C0.66 0.33 1.32 0.66 2 1 C1.69255859 1.82177734 1.69255859 1.82177734 1.37890625 2.66015625 C-1.26139714 10.42947004 -1.68500859 17.8536705 -2 26 C-2.33 26 -2.66 26 -3 26 C-3.22236782 22.93793495 -3.42834898 19.87623354 -3.625 16.8125 C-3.68945312 15.94818359 -3.75390625 15.08386719 -3.8203125 14.19335938 C-4.10046459 9.62337835 -4.2531859 6.153774 -2 2 C-1.34 2 -0.68 2 0 2 C0 1.34 0 0.68 0 0 Z " fill="#160F07" transform="translate(238,469)"/>
<path d="M0 0 C0.79019531 0.03609375 1.58039062 0.0721875 2.39453125 0.109375 C3.28205078 0.17898438 3.28205078 0.17898438 4.1875 0.25 C4.1875 1.57 4.1875 2.89 4.1875 4.25 C-0.4325 4.25 -5.0525 4.25 -9.8125 4.25 C-4.1875 -0.25 -4.1875 -0.25 0 0 Z " fill="#E1E1E1" transform="translate(731.8125,674.75)"/>
<path d="M0 0 C2.72814575 1.36407288 2.71507482 2.64872618 3.6875 5.5 C5.55350859 10.40795467 8.07236509 14.06959206 11.4140625 18.08984375 C13 20 13 20 15 23 C11.43903909 21.5378836 9.63829761 19.6621587 7.3125 16.625 C6.71050781 15.85414063 6.10851562 15.08328125 5.48828125 14.2890625 C4 12 4 12 3.48046875 9.7734375 C3.24263672 8.89558594 3.24263672 8.89558594 3 8 C2.01 7.67 1.02 7.34 0 7 C0 4.69 0 2.38 0 0 Z " fill="#F5CF02" transform="translate(244,501)"/>
<path d="M0 0 C0.33 0.99 0.66 1.98 1 3 C1.99 3 2.98 3 4 3 C2.33333333 6.33333333 0.66666667 9.66666667 -1 13 C-1.33 12.34 -1.66 11.68 -2 11 C-2.66 11 -3.32 11 -4 11 C-3.5247412 9.35303396 -3.04468109 7.70745272 -2.5625 6.0625 C-2.29566406 5.14597656 -2.02882813 4.22945312 -1.75390625 3.28515625 C-1 1 -1 1 0 0 Z " fill="#F8B301" transform="translate(648,546)"/>
<path d="M0 0 C1.45823212 -0.0270043 2.91660675 -0.04639787 4.375 -0.0625 C5.18710937 -0.07410156 5.99921875 -0.08570313 6.8359375 -0.09765625 C9 0 9 0 11 1 C10.67 1.99 10.34 2.98 10 4 C6.7 4 3.4 4 0 4 C0 2.68 0 1.36 0 0 Z " fill="#FBB600" transform="translate(693,539)"/>
<path d="M0 0 C2.0625 0.4375 2.0625 0.4375 4 1 C3.01 1 2.02 1 1 1 C1 6.61 1 12.22 1 18 C-2 15 -2 15 -2.109375 11.6796875 C-1.99078125 10.42414062 -1.8721875 9.16859375 -1.75 7.875 C-1.64171875 6.61429688 -1.5334375 5.35359375 -1.421875 4.0546875 C-1 1 -1 1 0 0 Z " fill="#020201" transform="translate(502,653)"/>
<path d="M0 0 C2.6855594 2.6855594 3.06049974 5.37621328 4 9 C3.01 9.99 2.02 10.98 1 12 C1 11.01 1 10.02 1 9 C0.01 8.67 -0.98 8.34 -2 8 C-2.125 5.125 -2.125 5.125 -2 2 C-1.34 1.34 -0.68 0.68 0 0 Z " fill="#F9B401" transform="translate(630,554)"/>
<path d="M0 0 C5.94 0 11.88 0 18 0 C22 7 22 7 22 9 C20.125 8.875 20.125 8.875 18 8 C17.34 6.02 16.68 4.04 16 2 C10.72 1.67 5.44 1.34 0 1 C0 0.67 0 0.34 0 0 Z " fill="#4F3606" transform="translate(181,498)"/>
<path d="M0 0 C11.52164009 -0.55353075 11.52164009 -0.55353075 17 3 C16.34 4.65 15.68 6.3 15 8 C14.01 7.67 13.02 7.34 12 7 C12.33 6.01 12.66 5.02 13 4 C8.66579301 1.96834048 4.71403788 1.47939368 0 1 C0 0.67 0 0.34 0 0 Z " fill="#F9DB02" transform="translate(842,538)"/>
<path d="M0 0 C2 1 2 1 3.125 3.6875 C4.71852949 9.61343779 4.15174116 15.92192359 4 22 C3.67 22 3.34 22 3 22 C2.87882812 20.78441406 2.75765625 19.56882812 2.6328125 18.31640625 C2.46402922 16.73171883 2.29473184 15.1470861 2.125 13.5625 C2.04636719 12.76005859 1.96773438 11.95761719 1.88671875 11.13085938 C1.66154237 9.07829006 1.33777413 7.03706991 1 5 C0.34 4.67 -0.32 4.34 -1 4 C-0.67 2.68 -0.34 1.36 0 0 Z " fill="#F4D002" transform="translate(334,473)"/>
<path d="M0 0 C1.32 0.33 2.64 0.66 4 1 C4 4.3 4 7.6 4 11 C3.01 11.495 3.01 11.495 2 12 C1.66269158 10.56342755 1.33030409 9.12569907 1 7.6875 C0.814375 6.88699219 0.62875 6.08648438 0.4375 5.26171875 C0 3 0 3 0 0 Z " fill="#FCB701" transform="translate(609,550)"/>
<path d="M0 0 C1.0546875 1.859375 1.0546875 1.859375 2 4 C1.125 6.25 1.125 6.25 0 8 C-0.66 8 -1.32 8 -2 8 C-2 9.98 -2 11.96 -2 14 C-2.66 14 -3.32 14 -4 14 C-4.33 14.66 -4.66 15.32 -5 16 C-4.49228528 10.03435204 -2.61407872 5.36190101 0 0 Z " fill="#F3CB02" transform="translate(672,436)"/>
<path d="M0 0 C0.99 0.66 1.98 1.32 3 2 C0.52620632 4.47379368 -1.6928935 4.96652922 -5 6 C-5.99 6.495 -5.99 6.495 -7 7 C-7.33 7.99 -7.66 8.98 -8 10 C-8.99 9.67 -9.98 9.34 -11 9 C-7.56638098 5.36440339 -4.2026393 2.63886654 0 0 Z " fill="#E9BB01" transform="translate(490,378)"/>
<path d="M0 0 C0.66 0.33 1.32 0.66 2 1 C2.05399736 2.45792884 2.09279177 3.91642712 2.125 5.375 C2.14820313 6.18710937 2.17140625 6.99921875 2.1953125 7.8359375 C2 10 2 10 0 12 C-1 11 -1 11 -1.1328125 8.75 C-1.13023437 7.8425 -1.12765625 6.935 -1.125 6 C-1.12757813 5.0925 -1.13015625 4.185 -1.1328125 3.25 C-1 1 -1 1 0 0 Z " fill="#181107" transform="translate(817,406)"/>
<path d="M0 0 C0.33 0.66 0.66 1.32 1 2 C-1.40545638 3.20272819 -2.94996953 3.10071472 -5.625 3.0625 C-6.85089844 3.04896484 -6.85089844 3.04896484 -8.1015625 3.03515625 C-9.04128906 3.01775391 -9.04128906 3.01775391 -10 3 C-10.33 3.99 -10.66 4.98 -11 6 C-11.33 6 -11.66 6 -12 6 C-12 4.35 -12 2.7 -12 1 C-6.06 0.505 -6.06 0.505 0 0 Z " fill="#020101" transform="translate(669,614)"/>
<path d="M0 0 C0.66 0.99 1.32 1.98 2 3 C1.34 3 0.68 3 0 3 C-0.33 3.66 -0.66 4.32 -1 5 C-2.65 4.67 -4.3 4.34 -6 4 C-6.33 2.68 -6.66 1.36 -7 0 C-4.27584084 -1.36207958 -2.87220643 -0.86166193 0 0 Z " fill="#F5B201" transform="translate(606,541)"/>
<path d="M0 0 C2.97 0.495 2.97 0.495 6 1 C6.33 2.32 6.66 3.64 7 5 C5.02 5 3.04 5 1 5 C0.67 3.35 0.34 1.7 0 0 Z " fill="#090908" transform="translate(480,626)"/>
<path d="M0 0 C1.32 0 2.64 0 4 0 C4.33 0.66 4.66 1.32 5 2 C4.67 2.99 4.34 3.98 4 5 C3.01 5.33 2.02 5.66 1 6 C0.67 8.31 0.34 10.62 0 13 C-0.33 13 -0.66 13 -1 13 C-1.07654536 8.48382401 -1.10228696 4.40914783 0 0 Z " fill="#E2A701" transform="translate(777,548)"/>
<path d="M0 0 C0.33 0 0.66 0 1 0 C1.05423638 1.91635217 1.09289963 3.83314925 1.125 5.75 C1.14820313 6.81734375 1.17140625 7.8846875 1.1953125 8.984375 C1.00487687 11.92470106 0.52670104 13.52361878 -1 16 C-2.24327778 10.15659442 -1.57300962 5.73303505 0 0 Z " fill="#1D1505" transform="translate(822,462)"/>
<path d="M0 0 C1.22589844 0.01353516 1.22589844 0.01353516 2.4765625 0.02734375 C3.41628906 0.04474609 3.41628906 0.04474609 4.375 0.0625 C4.375 1.0525 4.375 2.0425 4.375 3.0625 C2.91707116 3.11649736 1.45857288 3.15529177 0 3.1875 C-0.81210937 3.21070313 -1.62421875 3.23390625 -2.4609375 3.2578125 C-4.625 3.0625 -4.625 3.0625 -6.625 1.0625 C-4.21954362 -0.14022819 -2.67503047 -0.03821472 0 0 Z " fill="#F8AF02" transform="translate(845.625,574.9375)"/>
<path d="M0 0 C0.2475 0.598125 0.495 1.19625 0.75 1.8125 C1.8720306 4.13424058 1.8720306 4.13424058 4.125 5.5 C4.74375 5.995 5.3625 6.49 6 7 C6 8.32 6 9.64 6 11 C4.35 11.33 2.7 11.66 1 12 C1.20625 11.401875 1.4125 10.80375 1.625 10.1875 C2.30671915 7.71549154 2.30671915 7.71549154 0 5 C-0.125 2.3125 -0.125 2.3125 0 0 Z " fill="#EAB502" transform="translate(839,548)"/>
<path d="M0 0 C0.66 0.33 1.32 0.66 2 1 C1.125 4.875 1.125 4.875 0 6 C-1.99958364 6.04080783 -4.00045254 6.04254356 -6 6 C-2.25 1.125 -2.25 1.125 0 0 Z " fill="#131311" transform="translate(803,616)"/>
<path d="M0 0 C3.21043882 1.38188453 5.04936365 2.92421903 7.25 5.625 C8.03117188 6.57246094 8.03117188 6.57246094 8.828125 7.5390625 C9.40820312 8.26222656 9.40820312 8.26222656 10 9 C9.01 9 8.02 9 7 9 C7 8.34 7 7.68 7 7 C5.02 7.99 5.02 7.99 3 9 C3.2475 8.443125 3.495 7.88625 3.75 7.3125 C4.28353676 4.75949064 4.28353676 4.75949064 2.0625 2.25 C1.381875 1.5075 0.70125 0.765 0 0 Z " fill="#EBC302" transform="translate(195,573)"/>
<path d="M0 0 C1.98 0.99 3.96 1.98 6 3 C5.67 3.66 5.34 4.32 5 5 C2.4375 5.625 2.4375 5.625 0 6 C-0.66 4.68 -1.32 3.36 -2 2 C-1.34 1.34 -0.68 0.68 0 0 Z " fill="#EEBE03" transform="translate(835,569)"/>
<path d="M0 0 C1.32 0.66 2.64 1.32 4 2 C2.68 4.31 1.36 6.62 0 9 C-0.33 9 -0.66 9 -1 9 C-0.67 6.03 -0.34 3.06 0 0 Z " fill="#E7E7E6" transform="translate(841,631)"/>
<path d="M0 0 C0.66 0 1.32 0 2 0 C5.07692308 5.41538462 5.07692308 5.41538462 4.6875 8.375 C4.460625 8.91125 4.23375 9.4475 4 10 C3.34 10 2.68 10 2 10 C1.67 7.69 1.34 5.38 1 3 C0.01 2.67 -0.98 2.34 -2 2 C-1.34 1.34 -0.68 0.68 0 0 Z " fill="#1B1B1A" transform="translate(490,620)"/>
<path d="M0 0 C0.33 0 0.66 0 1 0 C1 6.27 1 12.54 1 19 C0.01 19 -0.98 19 -2 19 C-1.505 17.515 -1.505 17.515 -1 16 C-0.77202438 13.26710707 -0.58331813 10.54957796 -0.4375 7.8125 C-0.39431641 7.06291016 -0.35113281 6.31332031 -0.30664062 5.54101562 C-0.20077315 3.69421625 -0.0999024 1.84713166 0 0 Z " fill="#121211" transform="translate(520,611)"/>
<path d="M0 0 C2.66666667 2.66666667 5.33333333 5.33333333 8 8 C4.58678765 8 3.60527115 7.33132534 0.8125 5.5 C0.09707031 5.0359375 -0.61835937 4.571875 -1.35546875 4.09375 C-1.89816406 3.7328125 -2.44085937 3.371875 -3 3 C-2.01 2.01 -1.02 1.02 0 0 Z " fill="#1A1308" transform="translate(826,436)"/>
<path d="M0 0 C1.5 1.375 1.5 1.375 3 3 C3 3.66 3 4.32 3 5 C4.32 5.66 5.64 6.32 7 7 C6.67 7.99 6.34 8.98 6 10 C3.69 7.69 1.38 5.38 -1 3 C-0.67 2.01 -0.34 1.02 0 0 Z " fill="#251B07" transform="translate(263,550)"/>
<path d="M0 0 C0.99 0.33 1.98 0.66 3 1 C2.67 3.31 2.34 5.62 2 8 C0.35 8 -1.3 8 -3 8 C-2.01 5.36 -1.02 2.72 0 0 Z " fill="#171005" transform="translate(574,485)"/>
<path d="M0 0 C0.66 0.33 1.32 0.66 2 1 C1.2575 1.8971875 1.2575 1.8971875 0.5 2.8125 C-1.28276418 4.97029994 -1.28276418 4.97029994 -1 8 C-2.65 7.67 -4.3 7.34 -6 7 C-4.02 4.69 -2.04 2.38 0 0 Z " fill="#160F08" transform="translate(249,447)"/>
<path d="M0 0 C3.40320742 1.01176437 4.75725331 1.64843582 6.8125 4.625 C7.204375 5.40875 7.59625 6.1925 8 7 C5 7 5 7 2.3125 4.625 C0 2 0 2 0 0 Z " fill="#140D07" transform="translate(329,436)"/>
<path d="M0 0 C-0.33 1.65 -0.66 3.3 -1 5 C-1.99 5.33 -2.98 5.66 -4 6 C-4.66 4.35 -5.32 2.7 -6 1 C-4 0 -4 0 0 0 Z " fill="#FCB801" transform="translate(654,539)"/>
<path d="M0 0 C0 2.64 0 5.28 0 8 C-0.99 7.67 -1.98 7.34 -3 7 C-3 5.02 -3 3.04 -3 1 C-1 0 -1 0 0 0 Z " fill="#FCFDFC" transform="translate(582,619)"/>
<path d="M0 0 C0.33 0.66 0.66 1.32 1 2 C1.66 2 2.32 2 3 2 C4.125 6.75 4.125 6.75 3 9 C2.34 9 1.68 9 1 9 C0.45627049 5.94152152 0 3.11227195 0 0 Z " fill="#FBB602" transform="translate(625,544)"/>
<path d="M0 0 C0.99 0 1.98 0 3 0 C2.25 7.75 2.25 7.75 0 10 C0 6.7 0 3.4 0 0 Z " fill="#F7CD02" transform="translate(408,527)"/>
<path d="M0 0 C3.7952131 1.49097658 5.61042731 3.75700849 8 7 C5 7 5 7 2.3125 4.625 C0 2 0 2 0 0 Z " fill="#DBB301" transform="translate(318,439)"/>
<path d="M0 0 C0.66 0.66 1.32 1.32 2 2 C1.98252073 4.75589777 1.86136729 7.38786676 1.625 10.125 C1.56828125 10.87910156 1.5115625 11.63320313 1.453125 12.41015625 C1.3115535 14.27418096 1.15700041 16.13721137 1 18 C0.67 18 0.34 18 0 18 C0 12.72 0 7.44 0 2 C-0.66 1.67 -1.32 1.34 -2 1 C-1.34 0.67 -0.68 0.34 0 0 Z " fill="#CE9801" transform="translate(282,386)"/>
<path d="M0 0 C0.33 0 0.66 0 1 0 C1 3.3 1 6.6 1 10 C0.01 9.67 -0.98 9.34 -2 9 C-1.125 2.25 -1.125 2.25 0 0 Z " fill="#151006" transform="translate(578,471)"/>
<path d="M0 0 C2.475 0.99 2.475 0.99 5 2 C5 2.66 5 3.32 5 4 C4.34 4 3.68 4 3 4 C3.33 5.65 3.66 7.3 4 9 C1.49701566 6.06171403 0.53069061 3.82097239 0 0 Z " fill="#F7CA01" transform="translate(395,442)"/>
<path d="M0 0 C0.33 0.99 0.66 1.98 1 3 C-0.09445838 3.86657116 -1.20097781 4.71792724 -2.3125 5.5625 C-2.92738281 6.03816406 -3.54226563 6.51382812 -4.17578125 7.00390625 C-4.77777344 7.33261719 -5.37976563 7.66132813 -6 8 C-6.99 7.67 -7.98 7.34 -9 7 C-8.071875 6.401875 -7.14375 5.80375 -6.1875 5.1875 C-3.79745282 3.54727155 -1.91529747 2.1281083 0 0 Z " fill="#F8D201" transform="translate(299,370)"/>
<path d="M0 0 C2.92879371 0.62759865 5.36095629 1.58622659 8 3 C8 3.66 8 4.32 8 5 C5.36 4.34 2.72 3.68 0 3 C0 2.01 0 1.02 0 0 Z " fill="#130D09" transform="translate(216,604)"/>
<path d="M0 0 C0.66 0.33 1.32 0.66 2 1 C0 4 0 4 -2.3125 4.75 C-5.12136742 5.01128999 -7.28007322 4.69940974 -10 4 C-10 3.67 -10 3.34 -10 3 C-8.72125 2.87625 -7.4425 2.7525 -6.125 2.625 C-2.65209064 2.30957601 -2.65209064 2.30957601 0 0 Z " fill="#E7BA02" transform="translate(853,570)"/>
<path d="M0 0 C-4.75 4 -4.75 4 -7 4 C-7 3.34 -7 2.68 -7 2 C-7.66 1.67 -8.32 1.34 -9 1 C-2.25 -1.125 -2.25 -1.125 0 0 Z " fill="#150F06" transform="translate(307,539)"/>
<path d="M0 0 C0.99 0 1.98 0 3 0 C3 0.66 3 1.32 3 2 C4.65 1.67 6.3 1.34 8 1 C8 1.99 8 2.98 8 4 C5.36 3.67 2.72 3.34 0 3 C0 2.01 0 1.02 0 0 Z " fill="#161006" transform="translate(536,428)"/>
<path d="M0 0 C2.31 0 4.62 0 7 0 C6.67 0.99 6.34 1.98 6 3 C4.35 3 2.7 3 1 3 C0.67 2.01 0.34 1.02 0 0 Z " fill="#1D1C1B" transform="translate(506,635)"/>
<path d="M0 0 C2 1 2 1 2 1 Z M0 1 C-1.1875 2.5625 -1.1875 2.5625 -3 4 C-5.6875 3.6875 -5.6875 3.6875 -8 3 C-5.14066998 0.14066998 -3.8625627 -0.2875209 0 1 Z " fill="#150F09" transform="translate(344,612)"/>
<path d="M0 0 C2.31 1.65 4.62 3.3 7 5 C6.67 5.99 6.34 6.98 6 8 C4 6.625 4 6.625 2 5 C2 4.34 2 3.68 2 3 C1.34 3 0.68 3 0 3 C0 2.01 0 1.02 0 0 Z " fill="#1B1308" transform="translate(580,572)"/>
<path d="M0 0 C0.66 0.99 1.32 1.98 2 3 C0.35 4.32 -1.3 5.64 -3 7 C-3.33 5.35 -3.66 3.7 -4 2 C-2.68 1.34 -1.36 0.68 0 0 Z " fill="#EFB600" transform="translate(307,528)"/>
<path d="M0 0 C2.79828356 0.38597015 3.8205884 0.80136573 5.75 2.9375 C7 5 7 5 7 7 C6.34 7 5.68 7 5 7 C5 6.34 5 5.68 5 5 C4.01 4.67 3.02 4.34 2 4 C2 3.01 2 2.02 2 1 C1.34 0.67 0.68 0.34 0 0 Z " fill="#1C1407" transform="translate(815,454)"/>
<path d="M0 0 C0.33 0 0.66 0 1 0 C0.88557539 1.60495567 0.75805306 3.20898119 0.625 4.8125 C0.55539062 5.70582031 0.48578125 6.59914063 0.4140625 7.51953125 C0 10 0 10 -2 13 C-3.18771723 9.57056481 -2.80226223 7.62215325 -1.5625 4.25 C-1.27503906 3.45078125 -0.98757813 2.6515625 -0.69140625 1.828125 C-0.46324219 1.22484375 -0.23507812 0.6215625 0 0 Z " fill="#181008" transform="translate(698,422)"/>
<path d="M0 0 C0.33 0 0.66 0 1 0 C1 2.64 1 5.28 1 8 C1.66 8 2.32 8 3 8 C2.67 8.99 2.34 9.98 2 11 C1.01 10.34 0.02 9.68 -1 9 C-0.67 6.03 -0.34 3.06 0 0 Z " fill="#10100F" transform="translate(624,664)"/>
<path d="M0 0 C1.65 1.65 3.3 3.3 5 5 C3.02 5.99 3.02 5.99 1 7 C0.67 4.69 0.34 2.38 0 0 Z " fill="#181208" transform="translate(799,552)"/>
<path d="M0 0 C0 0.99 0 1.98 0 3 C-2.97 2.67 -5.94 2.34 -9 2 C-5.5647952 -0.29013653 -4.014669 -0.17842973 0 0 Z " fill="#211706" transform="translate(534,427)"/>
</svg>
